<?xml version="1.0" standalone="no"?>
<!DOCTYPE svg PUBLIC "-//W3C//DTD SVG 20010904//EN"
 "http://www.w3.org/TR/2001/REC-SVG-20010904/DTD/svg10.dtd">
<svg version="1.0" xmlns="http://www.w3.org/2000/svg"
 width="600.000000pt" height="581.000000pt" viewBox="0 0 600.000000 581.000000"
 preserveAspectRatio="xMidYMid meet">

<g transform="translate(0.000000,581.000000) scale(0.100000,-0.100000)"
fill="#000000" stroke="none">
<path d="M3960 5463 c-14 -3 -33 -14 -43 -24 -10 -11 -22 -17 -27 -14 -5 3
-15 -3 -22 -13 -7 -10 -30 -31 -51 -47 -21 -15 -45 -41 -53 -57 -8 -15 -21
-28 -29 -28 -8 0 -15 -8 -15 -17 0 -9 -3 -14 -6 -10 -9 8 -38 -22 -41 -42 -1
-8 -7 -17 -14 -20 -6 -2 -19 -13 -28 -24 -9 -11 -24 -27 -33 -36 -10 -8 -18
-23 -18 -33 0 -10 -7 -18 -15 -18 -17 0 -36 -39 -27 -54 3 -5 0 -6 -6 -2 -7 4
-12 2 -12 -4 0 -6 -13 -23 -30 -37 -16 -13 -30 -32 -30 -40 0 -9 -18 -34 -40
-56 -34 -33 -39 -42 -28 -55 11 -13 10 -14 -8 -8 -14 4 -23 2 -27 -7 -6 -16
21 -35 46 -31 12 2 17 -2 13 -12 -3 -8 0 -13 7 -11 7 1 12 -5 12 -13 0 -8 -6
-15 -13 -15 -7 0 -16 -6 -21 -13 -6 -10 -10 -10 -21 3 -22 26 -37 18 -32 -17
7 -48 -10 -25 -19 25 -6 35 -8 38 -14 20 -4 -13 -11 -20 -16 -17 -5 3 -9 0 -9
-5 0 -6 5 -11 11 -11 7 0 0 -9 -14 -21 -15 -11 -34 -19 -43 -17 -9 2 -19 -3
-21 -10 -3 -7 1 -10 10 -6 16 6 80 -73 71 -88 -3 -5 0 -7 7 -6 17 4 52 -66 75
-152 9 -36 12 -39 13 -17 1 16 7 27 15 27 10 0 13 -8 10 -27 -3 -15 -7 -30
-10 -34 -7 -12 -34 1 -34 17 0 8 -5 14 -11 14 -7 0 -8 11 -4 31 5 21 4 29 -3
25 -6 -3 -12 2 -15 11 -2 10 -4 -1 -4 -25 -1 -23 4 -45 9 -48 5 -3 6 -14 3
-24 -3 -10 -1 -21 5 -25 5 -3 10 -1 10 4 0 6 5 11 11 11 6 0 8 -8 5 -18 -4
-12 -1 -19 8 -19 9 0 13 4 10 9 -3 4 1 8 9 8 8 0 20 14 26 30 5 17 15 30 21
30 6 0 8 4 5 10 -3 6 1 7 9 4 11 -4 16 0 16 11 0 9 -4 14 -9 11 -5 -3 -12 1
-15 10 -4 11 -2 15 8 11 8 -3 16 -1 18 5 2 6 9 8 15 5 8 -5 9 -17 3 -39 -5
-17 -7 -34 -5 -39 3 -4 1 -10 -5 -14 -5 -3 -10 -17 -10 -30 0 -19 4 -23 17
-18 11 4 14 3 9 -5 -4 -7 -2 -12 4 -12 6 0 8 -10 4 -26 -5 -20 -3 -25 7 -22 8
3 13 12 11 22 -3 15 7 20 25 14 5 -2 7 -7 5 -12 -4 -11 26 11 46 34 12 13 13
13 8 -2 -7 -22 -2 -23 18 -2 11 11 21 12 33 5 16 -8 15 -10 -7 -19 -14 -5 -38
-13 -54 -18 -37 -11 -46 -34 -14 -34 13 0 29 5 34 10 14 14 46 1 40 -16 -4 -9
2 -14 17 -15 21 -1 21 -1 2 -7 -19 -7 -33 -32 -17 -32 4 0 14 6 21 13 11 10
12 8 6 -10 -5 -17 -2 -23 9 -23 8 0 17 4 21 10 3 5 12 7 20 4 7 -3 22 -1 32 5
15 9 11 11 -22 11 -37 1 -38 2 -15 11 20 8 22 12 10 20 -13 8 -13 10 -1 18 8
5 21 7 29 4 18 -8 35 19 19 30 -8 5 -5 7 8 4 24 -4 71 17 103 46 19 18 22 18
16 4 -5 -13 -2 -16 12 -11 15 5 16 4 4 -4 -8 -6 -18 -8 -22 -6 -4 3 -8 0 -8
-5 0 -19 67 -13 76 7 4 9 6 20 6 25 -1 4 15 22 36 41 24 22 38 44 40 62 1 15
8 31 15 36 9 6 9 8 -1 8 -9 0 -12 12 -8 41 2 22 0 54 -6 71 -10 28 -13 30 -49
25 -37 -5 -54 8 -25 19 8 3 16 14 19 26 5 16 9 18 23 10 13 -7 26 -6 46 4 15
8 28 11 29 7 1 -9 6 -41 14 -89 3 -18 13 -38 22 -45 15 -13 16 -9 10 41 -4 30
-7 68 -7 84 0 20 -4 27 -14 23 -21 -8 -24 20 -9 88 19 84 25 138 24 225 -2 97
-4 120 -12 120 -4 0 -6 21 -5 48 3 61 -25 190 -43 201 -8 5 -11 16 -7 26 4 13
2 16 -9 11 -9 -3 -15 0 -15 10 0 11 -5 14 -17 10 -9 -4 -19 -3 -22 2 -8 13
-42 20 -71 15z m-20 -77 c0 -2 -7 -7 -16 -10 -8 -3 -12 -2 -9 4 6 10 25 14 25
6z m93 -3 c-7 -2 -19 -2 -25 0 -7 3 -2 5 12 5 14 0 19 -2 13 -5z m-28 -33 c3
-5 1 -10 -4 -10 -6 0 -11 5 -11 10 0 6 2 10 4 10 3 0 8 -4 11 -10z m-20 -70
c-3 -5 0 -7 8 -4 8 3 18 1 22 -5 3 -6 1 -11 -4 -11 -6 0 -11 -7 -11 -15 0 -8
7 -15 15 -15 8 0 15 -5 15 -11 0 -5 -5 -7 -12 -3 -6 4 -8 3 -5 -3 4 -6 0 -24
-8 -39 -12 -24 -15 -26 -21 -10 -4 11 -2 21 6 26 19 12 -25 33 -53 25 -17 -5
-19 -4 -7 4 8 6 29 9 45 6 27 -5 28 -5 13 8 -20 15 -25 57 -7 57 5 0 7 -4 4
-10z m-60 -20 c-11 -5 -29 -9 -40 -9 l-20 0 20 9 c11 5 29 9 40 9 l20 0 -20
-9z m-20 -60 c-3 -5 -14 -10 -23 -10 -15 0 -15 2 -2 10 20 13 33 13 25 0z m65
-14 c0 -11 -19 -15 -25 -6 -3 5 1 10 9 10 9 0 16 -2 16 -4z m36 -56 c8 0 12
-5 9 -10 -4 -6 -1 -19 6 -28 12 -15 12 -15 -7 1 -11 9 -25 17 -31 17 -6 0 -16
7 -24 16 -10 13 -10 17 1 24 10 6 17 4 23 -5 4 -8 15 -15 23 -15z m54 -14 c0
-3 -4 -8 -10 -11 -5 -3 -10 -1 -10 4 0 6 5 11 10 11 6 0 10 -2 10 -4z m-65
-66 c3 -5 -3 -10 -15 -10 -12 0 -18 5 -15 10 3 6 10 10 15 10 5 0 12 -4 15
-10z m-115 -40 c0 -5 -5 -10 -11 -10 -5 0 -7 5 -4 10 3 6 8 10 11 10 2 0 4 -4
4 -10z m-20 -30 c0 -6 -11 -8 -27 -4 -40 10 -41 14 -5 14 18 0 32 -5 32 -10z
m70 -2 c0 -9 3 -9 12 0 8 8 17 8 31 0 20 -10 20 -11 -4 -24 -28 -15 -59 -18
-59 -5 0 5 -3 16 -6 25 -4 11 -1 16 10 16 9 0 16 -5 16 -12z m-59 -33 l34 -14
-30 -2 c-48 -3 -65 0 -81 16 -14 13 -12 15 14 15 16 0 45 -7 63 -15z m173 -20
c-4 -11 1 -15 17 -16 17 -1 19 -3 7 -6 -21 -5 -23 -14 -5 -32 6 -7 8 -12 2
-11 -29 6 -45 -2 -45 -20 0 -11 -16 -34 -35 -51 -19 -17 -32 -35 -29 -40 3 -5
0 -9 -5 -9 -6 0 -11 -6 -11 -13 0 -16 -36 -47 -54 -47 -7 0 -18 -10 -24 -22
-8 -18 -11 -19 -11 -6 -1 10 10 25 24 34 18 12 24 22 20 35 -4 11 -2 19 3 19
5 0 9 8 8 17 0 9 10 22 23 29 24 12 24 12 2 16 -33 5 -26 22 11 29 l33 6 -25
11 c-14 6 -18 11 -10 12 8 0 24 8 35 17 22 17 21 17 -75 -3 -19 -4 -30 -2 -30
5 0 6 17 11 38 11 l37 1 -25 14 c-30 17 -19 19 33 4 43 -12 77 -4 77 17 0 8 4
14 10 14 5 0 7 -7 4 -15z m-284 -25 c0 -13 -11 -13 -30 0 -12 8 -11 10 8 10
12 0 22 -4 22 -10z m150 -50 c0 -13 -30 -13 -50 0 -11 7 -7 10 18 10 17 0 32
-4 32 -10z m-420 -85 c5 3 10 1 10 -5 0 -6 4 -9 9 -5 5 3 12 1 16 -5 3 -5 2
-10 -3 -10 -5 0 -9 -7 -9 -15 0 -8 4 -12 9 -9 16 10 8 -29 -9 -42 -25 -19 -35
-17 -28 5 3 11 1 22 -4 25 -6 4 -8 14 -5 24 5 14 4 15 -5 2 -9 -13 -10 -13
-15 0 -2 8 -4 23 -3 32 0 13 4 15 13 7 7 -6 18 -8 24 -4z m267 -21 c-3 -3 -12
-4 -19 -1 -8 3 -5 6 6 6 11 1 17 -2 13 -5z m-327 -54 c0 -5 -7 -10 -16 -10 -8
0 -12 5 -9 10 3 6 10 10 16 10 5 0 9 -4 9 -10z m130 -11 c0 8 2 12 5 9 8 -7
-16 -58 -27 -58 -16 0 -21 30 -8 46 11 12 15 12 21 2 7 -10 9 -10 9 1z m417
-5 c-3 -3 -12 -4 -19 -1 -8 3 -5 6 6 6 11 1 17 -2 13 -5z m-664 -47 c9 -20 23
-37 29 -37 9 0 9 3 0 12 -7 7 -12 18 -12 25 0 20 36 -16 44 -44 13 -42 -27
-26 -67 26 -39 51 -45 65 -24 59 6 -3 20 -21 30 -41z m267 -2 c-6 -15 -13 -26
-16 -23 -2 3 0 18 6 33 6 15 13 26 16 23 2 -3 0 -18 -6 -33z m88 23 c8 -8 15
-8 27 2 13 11 15 9 15 -13 0 -23 3 -25 33 -21 17 3 38 7 45 9 6 2 12 0 12 -6
0 -7 10 -9 26 -5 17 5 23 3 19 -4 -3 -5 -8 -19 -10 -31 -6 -28 17 -19 33 14 8
16 18 24 27 20 18 -6 18 -13 0 -37 -24 -32 -19 -54 10 -48 14 2 25 11 25 18 0
8 4 14 10 14 11 0 -25 -74 -45 -90 -11 -9 -12 -7 -8 8 3 14 -2 21 -16 25 -13
3 -21 13 -21 27 0 14 -4 19 -12 14 -18 -11 -48 -12 -48 -2 0 4 -5 8 -11 8 -7
0 -18 8 -25 18 -11 13 -15 14 -22 4 -13 -19 -45 -3 -39 19 4 16 2 17 -16 7
-30 -16 -47 -18 -47 -6 0 6 -9 8 -20 5 -30 -8 -25 18 8 42 32 24 34 25 50 9z
m-153 -28 c3 -5 1 -10 -4 -10 -6 0 -11 5 -11 10 0 6 2 10 4 10 3 0 8 -4 11
-10z m-89 -75 c9 -19 23 -35 31 -35 10 0 12 -6 8 -22 -11 -35 -22 -43 -40 -28
-13 10 -15 9 -15 -6 0 -12 -6 -7 -19 16 -25 47 -37 89 -22 74 6 -6 13 -21 16
-34 5 -26 12 -36 21 -28 3 4 1 15 -4 25 -9 16 -6 73 4 73 2 0 11 -16 20 -35z
m94 -59 c0 -2 -9 -6 -21 -9 -13 -3 -19 -1 -16 6 2 7 1 24 -4 39 -11 40 1 42
22 3 11 -19 19 -37 19 -39z m442 32 c-17 -17 -15 -31 3 -24 9 3 15 0 15 -8 0
-8 5 -16 12 -18 21 -7 -56 -91 -109 -120 -45 -24 -49 -24 -50 -8 -1 10 5 24
13 31 8 6 14 8 14 4 0 -4 7 -2 15 5 13 11 14 10 9 -4 -5 -12 -2 -15 10 -10 8
3 14 9 13 12 -1 4 1 7 4 7 4 0 16 9 28 19 19 17 19 20 4 31 -12 9 -14 19 -9
41 8 29 23 54 34 54 3 0 1 -5 -6 -12z m-408 -34 c-6 -3 -8 -18 -6 -34 3 -18 0
-30 -7 -30 -12 0 -15 48 -5 75 5 12 9 14 18 4 8 -8 8 -13 0 -15z m101 7 c-3
-6 -14 -11 -23 -11 -15 1 -15 2 2 15 21 16 32 13 21 -4z m-45 -51 c0 -5 -2
-10 -4 -10 -3 0 -8 5 -11 10 -3 6 -1 10 4 10 6 0 11 -4 11 -10z m-33 -20 c-3
-11 -1 -22 4 -25 4 -3 6 -12 2 -20 -7 -19 2 -19 21 1 9 8 20 13 25 9 5 -3 -1
-16 -14 -30 -18 -17 -32 -22 -51 -19 -15 3 -23 1 -20 -5 4 -5 2 -12 -3 -15
-16 -10 -22 27 -6 44 8 9 20 31 26 48 12 35 25 44 16 12z m153 -20 c0 -11 -6
-20 -13 -20 -8 0 -14 7 -14 15 0 8 4 12 9 9 4 -3 8 0 8 5 0 6 2 11 5 11 3 0 5
-9 5 -20z m45 1 c-3 -6 -11 -11 -16 -11 -5 0 -4 6 3 14 14 16 24 13 13 -3z
m231 -17 c-4 -9 -9 -15 -11 -12 -3 3 -3 13 1 22 4 9 9 15 11 12 3 -3 3 -13 -1
-22z m-226 -10 c0 -11 -34 -33 -49 -34 -9 0 -6 7 9 20 23 20 40 26 40 14z m34
-8 c-21 -15 -30 -14 -19 3 3 6 14 11 23 11 13 0 13 -2 -4 -14z m-57 -101 c-35
-31 -57 -33 -50 -5 4 13 11 19 22 16 9 -3 23 -1 31 4 27 17 26 10 -3 -15z"/>
<path d="M1250 4790 c-21 -7 -20 -8 13 -7 24 1 42 -4 47 -13 6 -10 10 -11 10
-3 0 10 -32 35 -42 32 -2 -1 -14 -5 -28 -9z"/>
<path d="M1274 4748 c-3 -4 -1 -8 5 -8 5 0 16 -6 23 -13 8 -8 26 -10 48 -6 35
6 35 6 5 8 -26 2 -27 4 -10 10 16 6 11 9 -23 12 -24 3 -46 1 -48 -3z"/>
<path d="M1398 4718 c5 -5 16 -8 23 -6 8 3 3 7 -10 11 -17 4 -21 3 -13 -5z"/>
<path d="M1350 4700 c0 -5 -7 -10 -15 -10 -21 0 -19 -12 10 -54 13 -20 22 -36
18 -36 -3 0 0 -7 7 -15 7 -8 17 -12 23 -8 6 4 7 1 3 -6 -10 -16 42 -91 63 -91
13 0 13 -2 2 -9 -7 -5 -10 -14 -7 -20 4 -6 12 -8 18 -5 7 4 8 2 4 -5 -9 -14
42 -121 61 -128 7 -3 15 -21 18 -41 7 -40 26 -93 58 -159 11 -24 20 -56 19
-73 0 -16 3 -32 8 -35 5 -3 7 -14 5 -25 -3 -14 7 -28 31 -46 37 -29 43 -44 18
-44 -14 0 -14 -3 -3 -16 11 -14 13 -14 21 0 12 22 52 22 44 0 -5 -13 -1 -15
21 -11 18 3 34 0 45 -10 16 -14 19 -14 37 8 15 19 22 21 32 12 18 -18 4 -42
-20 -36 -15 4 -21 1 -21 -11 0 -9 -8 -17 -17 -17 -10 -1 -4 -4 12 -8 22 -5 35
-2 49 11 11 10 30 18 44 18 19 0 22 -4 17 -20 -5 -14 -2 -20 10 -20 32 0 69
59 37 61 -12 0 -11 3 6 10 29 11 93 3 104 -13 5 -9 8 -6 8 10 0 18 -5 22 -32
22 -23 0 -29 3 -19 9 11 7 9 10 -8 16 -13 4 -29 1 -38 -7 -12 -9 -15 -9 -9 0
4 6 3 12 -2 12 -6 0 -12 6 -15 14 -4 10 1 13 21 10 15 -2 51 -7 80 -10 29 -4
55 -11 59 -17 4 -6 -5 -8 -23 -3 -19 4 -24 3 -14 -2 8 -5 30 -12 49 -16 29 -5
32 -4 20 10 -11 13 -9 14 14 9 17 -5 27 -3 27 4 0 6 -3 11 -7 12 -5 0 -37 3
-73 5 -92 7 -100 11 -65 35 19 12 39 17 55 14 24 -5 24 -5 6 10 -11 8 -28 13
-38 10 -10 -3 -27 -8 -38 -11 -11 -3 -20 -1 -20 5 0 5 -7 17 -16 26 -15 15
-15 16 7 14 13 -1 35 -1 49 0 l25 2 -25 11 c-14 6 -38 13 -55 15 -43 6 -44 13
-4 13 19 0 40 -5 47 -12 9 -9 15 -8 27 8 22 29 18 42 -16 49 -17 4 -33 14 -36
23 -4 8 -15 24 -26 35 -16 16 -19 17 -14 4 3 -9 2 -17 -2 -17 -8 0 -24 29 -21
38 0 1 -6 16 -15 32 -13 25 -13 29 -1 24 8 -3 17 -17 21 -31 3 -15 11 -23 19
-20 8 3 29 -8 47 -24 19 -17 29 -28 22 -25 -6 4 -14 2 -18 -4 -3 -5 3 -10 13
-10 11 0 25 -7 32 -15 7 -8 22 -13 34 -11 12 2 30 -2 41 -10 38 -28 39 -13 2
19 -28 24 -38 39 -35 55 3 22 4 22 23 7 11 -9 14 -14 8 -10 -7 3 -13 1 -13 -5
0 -6 11 -15 25 -20 14 -5 25 -14 25 -20 0 -5 5 -10 10 -10 6 0 2 12 -7 27 -16
24 -16 26 -2 21 13 -5 16 -2 12 13 -3 10 -9 17 -13 14 -4 -3 -10 2 -14 10 -3
8 -1 15 4 15 14 0 12 26 -3 42 -7 7 -13 23 -14 36 -2 24 4 20 37 -22 13 -18
13 -19 0 -13 -8 4 -7 2 4 -5 10 -7 31 -23 47 -36 l28 -23 -23 43 c-21 38 -22
47 -11 72 7 18 14 24 17 16 3 -11 6 -10 10 2 5 11 0 18 -13 21 -14 4 -19 0
-19 -13 0 -16 -3 -17 -25 -7 -14 7 -25 18 -25 26 0 7 -9 22 -20 31 -13 11 -17
21 -10 25 17 11 11 25 -15 35 -14 5 -25 14 -25 20 0 5 -5 10 -11 10 -6 0 -9
-9 -6 -19 4 -15 0 -18 -20 -16 -14 1 -28 7 -32 12 -8 13 -44 26 -36 13 10 -16
-11 -12 -25 5 -7 8 -16 13 -20 10 -4 -3 -11 3 -14 12 -6 15 -8 15 -16 3 -8
-13 -10 -13 -10 1 0 15 -42 35 -64 30 -4 -1 -20 6 -33 15 -21 13 -27 14 -34 3
-6 -10 -9 -11 -9 -1 0 6 -8 12 -18 12 -10 0 -23 5 -30 12 -7 7 -12 9 -12 4 0
-4 -14 3 -31 15 -25 17 -35 20 -49 12 -21 -14 -36 -4 -35 22 0 17 -8 20 -53
23 -35 2 -50 7 -46 14 5 8 1 9 -10 5 -9 -4 -14 -3 -11 2 14 24 -37 22 -145 -5
-18 -4 -21 -3 -11 4 11 8 11 10 0 15 -8 3 0 6 16 7 26 1 27 3 10 10 -28 12
-45 12 -45 0z m160 -58 c0 -4 -6 -14 -12 -20 -10 -10 -3 -12 33 -9 26 3 53 1
60 -4 11 -7 10 -9 -3 -9 -24 0 -23 -12 2 -28 11 -7 20 -18 20 -25 0 -9 -2 -9
-8 1 -7 10 -15 10 -36 2 -35 -13 -76 -13 -76 0 0 6 -8 10 -17 10 -15 0 -16 2
-3 10 12 8 11 10 -7 10 -13 0 -23 5 -23 11 0 5 6 7 13 3 8 -5 8 -2 -2 9 -12
15 -10 18 20 24 28 5 30 7 14 14 -19 7 -18 8 3 8 12 1 22 -3 22 -7z m152 -100
c-19 -6 -44 6 -37 18 4 7 14 6 28 -2 14 -7 17 -13 9 -16z m15 -18 c-3 -3 -12
-4 -19 -1 -8 3 -5 6 6 6 11 1 17 -2 13 -5z m-44 -31 c-7 -2 -19 -2 -25 0 -7 3
-2 5 12 5 14 0 19 -2 13 -5z m-58 -22 c3 -5 1 -12 -5 -16 -5 -3 -10 -1 -10 5
0 7 -6 8 -19 0 -29 -15 -39 -12 -17 5 23 17 42 19 51 6z m440 -21 c4 -6 -2 -9
-14 -7 -29 4 -39 17 -13 17 11 0 24 -5 27 -10z m75 -23 c0 -7 -4 -6 -10 3 -8
13 -10 12 -10 -2 0 -10 6 -18 13 -18 8 0 7 -3 -3 -10 -12 -7 -12 -12 -2 -22 6
-6 12 -21 11 -32 0 -20 0 -20 -9 0 -5 12 -14 25 -21 30 -7 4 -10 3 -5 -4 4 -7
-2 -10 -16 -10 -27 2 -68 35 -68 57 0 10 9 6 30 -14 28 -27 31 -28 43 -11 8
10 12 30 9 43 -4 23 -3 24 17 14 11 -7 21 -17 21 -24z m-75 -5 c-3 -3 -11 0
-18 7 -9 10 -8 11 6 5 10 -3 15 -9 12 -12z m-301 -17 c-4 -8 -10 -15 -15 -15
-5 0 -9 -4 -9 -10 0 -14 -41 -60 -54 -60 -5 0 1 11 13 24 13 14 20 29 17 35
-4 5 6 17 21 25 35 19 33 19 27 1z m442 -64 c-3 -14 -3 -20 0 -13 3 6 10 9 16
6 7 -5 9 2 4 20 -5 19 -3 26 9 26 8 0 15 -5 15 -12 0 -6 10 -22 22 -35 12 -13
16 -23 10 -23 -6 0 -15 7 -20 16 -8 15 -12 14 -31 -5 -13 -13 -29 -20 -38 -17
-16 7 -15 -6 3 -74 6 -21 5 -23 -8 -13 -8 7 -17 10 -21 7 -8 -9 -40 44 -34 58
3 9 8 6 13 -7 9 -21 34 -32 34 -15 0 6 -5 10 -11 10 -5 0 -8 4 -5 9 4 5 0 12
-6 15 -10 3 -8 8 4 19 13 10 15 16 6 25 -9 9 -7 12 8 13 10 0 14 3 7 5 -7 3
-9 12 -6 20 9 25 35 -5 29 -35z m-169 27 c-1 -34 4 -48 17 -48 8 0 18 -4 21
-10 9 -14 -25 0 -54 22 -13 10 -18 18 -11 18 10 0 10 3 0 15 -10 12 -9 15 8
15 11 0 20 -6 19 -12z m-262 -8 c-3 -5 -12 -10 -18 -10 -7 0 -6 4 3 10 19 12
23 12 15 0z m221 -50 c9 0 13 -4 10 -9 -7 -11 -56 -2 -56 11 0 6 7 7 16 4 9
-3 22 -6 30 -6z m-26 -35 c10 -13 9 -15 -9 -15 -12 0 -20 -4 -16 -9 3 -5 -4
-12 -15 -16 -11 -3 -20 -11 -20 -17 0 -6 -10 -8 -25 -4 -19 5 -23 3 -19 -9 4
-10 0 -15 -10 -15 -12 0 -15 -6 -11 -23 6 -22 3 -24 -30 -23 -50 2 -68 31 -34
57 13 10 31 19 40 19 9 0 22 11 29 25 12 22 19 25 44 20 29 -6 30 -5 12 10
-19 14 -18 15 16 15 19 0 41 -7 48 -15z m157 -44 c2 -12 15 -33 31 -47 l27
-24 -38 17 c-20 9 -36 22 -36 27 4 33 -2 48 -16 42 -9 -3 -15 0 -15 9 0 24 43
2 47 -24z m-144 5 c4 -10 1 -13 -9 -9 -15 6 -19 23 -5 23 5 0 11 -7 14 -14z
m257 0 c0 -3 -4 -8 -10 -11 -5 -3 -10 -1 -10 4 0 6 5 11 10 11 6 0 10 -2 10
-4z m-210 -71 c7 -9 8 -15 2 -15 -5 0 -12 7 -16 15 -3 8 -4 15 -2 15 2 0 9 -7
16 -15z m-246 -51 c3 -8 2 -12 -4 -9 -6 3 -10 10 -10 16 0 14 7 11 14 -7z
m201 -24 c4 -6 10 -8 15 -5 4 3 13 -1 19 -9 9 -11 6 -15 -14 -18 -14 -3 -23
-3 -20 0 3 3 -2 14 -12 24 -9 10 -11 18 -5 18 6 0 14 -5 17 -10z m-50 -20 c3
-6 -1 -7 -9 -4 -18 7 -21 14 -7 14 6 0 13 -4 16 -10z m-20 -88 c-3 -3 -11 0
-18 7 -9 10 -8 11 6 5 10 -3 15 -9 12 -12z m165 -29 c0 -3 -9 -3 -20 0 -11 3
-23 1 -26 -4 -7 -12 -24 -12 -24 0 0 5 8 11 18 13 19 4 52 -2 52 -9z m-150
-23 c13 -8 12 -10 -2 -10 -10 0 -18 -4 -18 -10 0 -5 -8 -10 -17 -10 -15 0 -16
2 -3 10 8 5 11 10 7 10 -5 0 -5 5 -2 10 8 12 16 12 35 0z m-103 -6 c-3 -3 -12
-4 -19 -1 -8 3 -5 6 6 6 11 1 17 -2 13 -5z m217 -30 c3 -9 -4 -16 -19 -20 -14
-3 -25 -10 -25 -16 0 -5 -5 -6 -10 -3 -16 10 -2 25 23 25 16 0 18 3 9 12 -7 7
-12 15 -12 20 0 12 28 -2 34 -18z m-64 1 c0 -2 -7 -5 -15 -9 -9 -3 -15 0 -15
9 0 9 6 12 15 9 8 -4 15 -7 15 -9z m-120 -5 c0 -5 -2 -10 -4 -10 -3 0 -8 5
-11 10 -3 6 -1 10 4 10 6 0 11 -4 11 -10z"/>
<path d="M1525 4570 c-13 -6 -15 -9 -5 -9 8 0 22 4 30 9 18 12 2 12 -25 0z"/>
<path d="M3240 4624 c0 -21 39 -77 40 -57 0 6 -5 15 -11 18 -6 4 -8 13 -5 20
3 8 -2 19 -10 25 -11 10 -14 9 -14 -6z"/>
<path d="M3220 4544 c0 -3 7 -12 15 -20 12 -12 15 -12 15 -2 0 8 4 7 11 -4 5
-10 14 -18 20 -18 5 0 4 9 -3 20 -7 11 -19 18 -25 15 -7 -2 -13 0 -13 5 0 6
-4 10 -10 10 -5 0 -10 -3 -10 -6z"/>
<path d="M3300 4498 c0 -32 -16 -36 -36 -10 -12 16 -13 16 -14 0 0 -9 5 -20
10 -23 6 -3 10 -11 10 -17 0 -7 -6 -6 -15 2 -30 25 -6 -50 27 -83 17 -17 18
-16 18 18 0 23 4 34 13 33 18 -4 21 63 3 87 -15 19 -15 19 -16 -7z m-13 -90
c-3 -8 -6 -5 -6 6 -1 11 2 17 5 13 3 -3 4 -12 1 -19z"/>
<path d="M2184 4489 c-3 -6 -1 -16 5 -22 8 -8 11 -5 11 11 0 24 -5 28 -16 11z"/>
<path d="M2276 4465 c-3 -8 -1 -15 4 -15 6 0 10 7 10 15 0 8 -2 15 -4 15 -2 0
-6 -7 -10 -15z"/>
<path d="M2387 4473 c-4 -3 -7 -11 -7 -17 0 -6 5 -5 12 2 6 6 9 14 7 17 -3 3
-9 2 -12 -2z"/>
<path d="M2292 4428 c-10 -27 -9 -35 4 -49 15 -16 18 -16 31 -3 14 13 13 17
-2 34 -10 11 -15 26 -12 35 4 8 3 15 -1 15 -4 0 -13 -14 -20 -32z"/>
<path d="M2262 4420 c0 -14 2 -19 5 -12 2 6 2 18 0 25 -3 6 -5 1 -5 -13z"/>
<path d="M3226 4396 c4 -11 0 -16 -11 -16 -9 0 -13 -4 -10 -10 3 -5 13 -10 21
-10 16 0 19 35 4 45 -6 3 -7 -1 -4 -9z"/>
<path d="M2760 4390 c0 -5 5 -10 11 -10 5 0 7 5 4 10 -3 6 -8 10 -11 10 -2 0
-4 -4 -4 -10z"/>
<path d="M3455 4360 c-3 -5 -1 -10 5 -10 6 0 8 -5 5 -10 -4 -6 -10 -8 -15 -5
-4 3 -10 -2 -14 -10 -4 -10 1 -15 14 -15 11 0 20 6 21 13 0 6 2 20 4 30 3 18
-10 23 -20 7z"/>
<path d="M3147 4354 c-3 -3 -1 -18 4 -32 6 -14 6 -28 1 -31 -16 -11 -22 -71
-9 -92 10 -16 9 -22 -3 -30 -11 -8 -12 -12 -2 -16 6 -2 12 -15 12 -28 0 -13 6
-26 13 -29 9 -5 9 -7 0 -12 -7 -3 -9 -12 -6 -20 3 -8 -1 -14 -10 -14 -21 0
-30 -29 -12 -36 8 -4 15 -12 15 -19 0 -7 6 -16 13 -18 10 -4 10 -6 0 -6 -17
-1 -16 -19 2 -37 12 -12 15 -13 15 -2 0 7 14 25 30 40 17 14 30 36 30 47 0 12
5 21 10 21 6 0 10 -4 10 -10 0 -5 4 -10 10 -10 6 0 6 9 0 25 -6 15 -6 27 0 30
6 3 5 16 -2 30 -6 13 -15 22 -19 19 -5 -3 -9 4 -9 15 0 11 5 23 10 26 6 3 9
14 9 23 -1 15 -2 15 -6 -1 -2 -9 -8 -15 -13 -12 -4 2 -10 -9 -13 -25 -9 -44
-29 -29 -54 41 -24 67 -22 85 7 69 26 -14 27 -13 35 17 5 20 2 31 -10 39 -11
8 -14 18 -9 26 6 10 4 10 -9 -1 -15 -12 -17 -11 -17 3 0 16 -11 21 -23 10z"/>
<path d="M2487 4317 c-3 -7 -1 -20 3 -28 7 -11 10 -10 16 4 4 10 2 23 -3 28
-7 7 -12 6 -16 -4z"/>
<path d="M3077 4296 c-4 -10 -3 -15 3 -11 6 3 10 1 10 -6 0 -7 3 -10 6 -6 3 3
2 13 -4 22 -8 16 -9 16 -15 1z"/>
<path d="M3243 4282 c-3 -7 -3 -16 1 -19 3 -4 6 2 6 12 0 14 3 16 12 7 8 -8 8
-15 -2 -27 -7 -8 -10 -18 -6 -22 3 -3 6 0 6 8 1 10 5 8 15 -5 15 -19 15 -19
15 4 0 13 8 33 18 44 l17 21 -24 -20 c-20 -17 -23 -17 -18 -3 4 12 1 16 -15
15 -11 -1 -23 -7 -25 -15z"/>
<path d="M3326 4285 c-3 -8 -1 -15 4 -15 6 0 10 7 10 15 0 8 -2 15 -4 15 -2 0
-6 -7 -10 -15z"/>
<path d="M3390 4255 c0 -14 5 -25 10 -25 6 0 10 5 10 10 0 6 8 10 18 10 15 1
15 2 -2 15 -28 21 -36 19 -36 -10z"/>
<path d="M3216 4252 c-3 -6 -1 -14 5 -17 15 -10 25 3 12 16 -7 7 -13 7 -17 1z"/>
<path d="M2926 4237 c3 -10 9 -15 12 -12 3 3 0 11 -7 18 -10 9 -11 8 -5 -6z"/>
<path d="M3792 4231 c-11 -7 -10 -10 3 -15 28 -10 45 -7 45 9 0 16 -27 20 -48
6z"/>
<path d="M2250 4221 c0 -4 9 -20 20 -34 11 -14 20 -34 20 -45 0 -11 7 -25 15
-32 11 -9 15 -10 15 -1 0 8 8 10 20 6 11 -3 20 -2 20 4 0 5 -10 11 -22 13 -14
2 -30 19 -45 51 -21 42 -43 62 -43 38z"/>
<path d="M2530 4213 c0 -14 6 -23 15 -23 8 0 15 -7 15 -16 0 -8 4 -13 9 -10 4
3 6 17 3 32 -3 17 -7 22 -12 14 -6 -9 -11 -7 -19 6 -10 18 -10 18 -11 -3z"/>
<path d="M3440 4215 c-8 -9 -8 -15 -2 -15 12 0 26 19 19 26 -2 2 -10 -2 -17
-11z"/>
<path d="M3598 4223 c7 -3 16 -2 19 1 4 3 -2 6 -13 5 -11 0 -14 -3 -6 -6z"/>
<path d="M2372 4209 c2 -7 10 -15 17 -17 8 -3 12 1 9 9 -2 7 -10 15 -17 17 -8
3 -12 -1 -9 -9z"/>
<path d="M3290 4210 c-12 -7 -12 -12 -3 -21 10 -10 14 -9 19 5 8 22 2 27 -16
16z"/>
<path d="M3340 4210 c-9 -6 -10 -10 -3 -10 6 0 15 5 18 10 8 12 4 12 -15 0z"/>
<path d="M2330 4194 c0 -8 -4 -12 -10 -9 -6 3 -7 -1 -4 -9 3 -9 12 -16 19 -16
7 0 18 -7 25 -15 7 -8 21 -15 31 -15 13 0 19 -7 19 -22 -1 -23 -1 -23 -16 -3
-18 22 -18 21 14 -48 25 -56 26 -57 11 -57 -5 0 -8 4 -5 8 7 11 -10 35 -27 38
-20 3 -15 -40 8 -67 11 -12 14 -19 8 -15 -9 5 -13 1 -14 -11 0 -10 -2 -28 -5
-40 -2 -13 1 -23 6 -23 6 0 10 5 10 11 0 5 5 7 10 4 15 -9 -17 -38 -32 -30 -7
4 -4 -1 7 -9 11 -9 26 -14 34 -11 9 3 12 3 9 -1 -4 -4 -2 -16 4 -28 11 -21 10
-21 -10 -3 -13 12 -22 15 -27 8 -3 -6 -3 -11 2 -11 4 0 1 -5 -7 -11 -12 -8
-10 -9 8 -4 16 5 22 2 22 -10 0 -13 -6 -16 -26 -11 -15 4 -39 10 -55 13 -16 3
-29 9 -29 14 0 5 8 6 18 2 9 -3 14 -3 10 1 -8 10 -88 13 -88 5 0 -4 -16 -3
-35 1 -24 5 -38 4 -45 -5 -6 -7 -32 -16 -57 -20 -26 -4 -60 -17 -77 -30 -17
-12 -36 -20 -43 -18 -18 6 -55 -16 -47 -29 4 -7 3 -8 -4 -4 -7 4 -12 2 -12 -3
0 -6 -4 -11 -9 -11 -6 0 -8 9 -6 20 3 13 -2 20 -12 20 -9 0 -13 -6 -10 -14 9
-22 -18 -26 -34 -5 -7 10 -17 19 -22 19 -5 0 -4 -6 2 -14 8 -10 9 -16 1 -21
-15 -9 -12 -25 3 -19 8 3 25 -4 38 -15 13 -11 18 -20 12 -21 -20 0 -15 -18 6
-25 20 -6 53 3 47 14 -2 3 17 6 42 5 26 0 50 4 54 10 4 6 8 0 8 -15 0 -40 48
-125 87 -154 42 -33 110 -55 168 -55 37 0 123 19 165 37 8 4 41 7 73 7 52 1
57 -1 57 -21 0 -26 11 -35 30 -23 16 10 24 50 9 50 -5 0 -8 4 -5 9 3 4 -3 19
-14 31 -20 23 -24 34 -21 58 1 7 -4 11 -10 10 -7 -2 -15 5 -17 15 -2 10 -15
30 -29 45 -49 53 -64 79 -49 85 8 3 16 -2 19 -14 5 -18 8 -19 28 -8 17 9 24 9
27 0 2 -6 10 -11 18 -11 7 0 11 -6 8 -14 -3 -8 -1 -17 5 -21 6 -3 11 -1 11 4
0 6 5 11 10 11 6 0 10 -7 10 -16 0 -13 3 -14 14 -5 10 8 16 8 25 -2 6 -8 8
-17 4 -20 -3 -4 -3 -7 0 -7 4 0 16 14 26 31 10 17 21 26 25 21 3 -5 -1 -15 -9
-22 -20 -16 -19 -40 1 -40 8 0 12 5 9 10 -3 6 -2 10 4 10 11 0 8 34 -6 70
l-10 25 -7 -23 c-4 -12 -12 -22 -17 -22 -6 0 -7 5 -4 11 4 5 4 22 0 37 -5 21
-8 23 -16 11 -8 -10 -9 -7 -6 14 5 34 -9 36 -17 2 -8 -31 -24 -33 -28 -2 -2
14 -9 21 -21 21 -9 -1 -17 2 -17 7 0 5 4 9 9 9 5 0 9 12 9 26 0 39 17 51 42
29 11 -10 17 -21 15 -26 -3 -4 -1 -10 3 -13 5 -3 9 16 9 42 0 26 -2 39 -4 30
-5 -20 -11 -22 -33 -8 -17 10 -40 -5 -40 -27 0 -16 -19 -37 -38 -41 -14 -2
-17 15 -3 20 5 2 11 10 13 18 2 8 7 18 12 21 13 10 -2 29 -22 29 -11 0 -18 -8
-19 -20 -1 -11 2 -20 8 -20 5 0 9 -4 9 -9 0 -5 -11 -4 -25 2 -13 7 -20 14 -15
15 6 2 10 10 10 18 0 7 -6 11 -13 9 -9 -4 -12 7 -11 40 2 48 -19 64 -29 23 -4
-12 -9 -19 -13 -15 -3 3 -3 14 1 24 10 23 15 72 6 71 -18 -2 -29 3 -34 16 -4
10 -1 13 9 9 15 -5 19 8 7 21 -5 4 -8 11 -8 14 0 20 -29 71 -36 66 -5 -3 -12
2 -15 10 -3 9 -12 16 -20 16 -8 0 -14 5 -14 10 0 6 -4 10 -10 10 -5 0 -10 -7
-10 -16z m124 -440 c5 -14 4 -15 -9 -4 -17 14 -19 20 -6 20 5 0 12 -7 15 -16z
m-59 -72 c-9 -9 -35 8 -35 24 0 16 2 16 20 -1 11 -10 18 -20 15 -23z m-145
-33 c0 -24 -4 -29 -25 -29 -21 0 -25 5 -25 29 0 20 6 31 18 34 26 5 32 -1 32
-34z m-70 -62 c0 -16 83 -89 89 -78 4 6 12 2 20 -10 9 -15 9 -19 1 -14 -7 4
-31 9 -54 11 -32 2 -48 10 -73 38 -18 20 -33 47 -33 60 0 22 2 23 25 13 14 -7
25 -16 25 -20z m155 -47 c-28 -12 -37 -12 -30 0 3 6 16 10 28 9 21 0 21 -1 2
-9z"/>
<path d="M3858 4204 c6 -3 10 -10 6 -15 -3 -5 9 -9 27 -9 39 0 28 15 -16 23
-16 4 -24 4 -17 1z"/>
<path d="M2756 4185 c4 -8 8 -15 10 -15 2 0 4 7 4 15 0 8 -4 15 -10 15 -5 0
-7 -7 -4 -15z"/>
<path d="M3210 4186 c0 -9 -4 -14 -10 -11 -5 3 -10 1 -10 -4 0 -6 5 -11 10
-11 13 0 25 28 16 37 -3 4 -6 -1 -6 -11z"/>
<path d="M3474 4185 c-4 -8 -10 -12 -15 -9 -5 3 -8 0 -7 -8 2 -7 -4 -12 -13
-10 -10 1 -19 -6 -22 -19 -4 -15 -11 -20 -21 -16 -11 5 -16 0 -16 -13 0 -10
-5 -22 -11 -25 -6 -4 -8 -13 -5 -21 3 -7 -4 -18 -14 -24 -17 -9 -20 -7 -20 9
0 20 -39 74 -40 54 0 -6 6 -14 13 -16 10 -4 10 -6 0 -6 -7 -1 -13 -6 -13 -12
0 -6 7 -9 15 -5 18 7 20 -5 3 -22 -9 -9 -9 -12 1 -12 7 0 10 -4 6 -9 -3 -6 8
-8 29 -4 19 3 36 1 40 -5 4 -7 -1 -9 -14 -7 -11 2 -22 0 -25 -6 -4 -5 4 -9 17
-9 21 0 20 -2 -8 -19 -18 -11 -35 -24 -38 -30 -4 -6 -17 -11 -30 -11 -24 0
-64 -35 -53 -46 3 -4 0 -22 -8 -40 -8 -19 -13 -34 -11 -34 2 0 -4 -29 -14 -65
-10 -36 -13 -65 -8 -65 5 0 7 -4 4 -9 -10 -16 40 -40 100 -46 33 -4 70 -8 84
-10 39 -5 129 14 171 35 80 42 122 117 123 222 l0 77 30 -6 c25 -5 28 -4 23
11 -4 9 -3 15 2 12 21 -13 67 -29 79 -27 6 1 12 -6 12 -16 1 -13 5 -10 16 10
9 16 21 26 28 24 7 -3 13 1 13 8 0 14 -27 8 -38 -8 -4 -6 -14 -5 -25 2 -17 9
-17 10 -1 11 9 0 17 4 17 9 0 4 -12 6 -27 3 -27 -4 -27 -4 -8 11 11 8 17 19
12 23 -4 4 -13 2 -19 -4 -8 -8 -15 -7 -24 6 -16 20 -18 42 -4 42 5 0 7 -7 3
-16 -5 -14 -2 -16 20 -11 14 4 27 3 29 -1 2 -5 16 -12 31 -16 22 -5 28 -3 25
6 -3 7 -23 18 -45 23 -23 6 -45 13 -49 18 -13 12 -34 8 -34 -8 0 -13 -40 -22
-73 -16 -5 1 -6 -3 -3 -8 3 -5 20 -8 37 -7 40 3 47 -11 9 -19 -22 -5 -39 -1
-64 14 -18 12 -41 21 -50 21 -9 0 -16 6 -16 14 0 24 -17 28 -49 12 -23 -12
-36 -13 -61 -5 -17 6 -34 9 -37 5 -4 -3 1 -6 10 -6 9 0 14 -6 11 -13 -2 -7
-14 -13 -25 -13 -29 0 -19 28 16 45 30 14 45 29 45 45 0 4 -7 6 -15 2 -19 -7
-19 -4 -1 39 8 19 13 35 10 35 -2 0 -7 -7 -10 -15z m-59 -85 c-10 -11 -21 -17
-24 -14 -3 3 3 12 13 20 28 20 32 17 11 -6z m130 -60 c-27 -12 -43 -12 -25 0
8 5 22 9 30 9 10 0 8 -3 -5 -9z m38 -17 c-7 -2 -19 -2 -25 0 -7 3 -2 5 12 5
14 0 19 -2 13 -5z m-16 -104 c9 -8 23 -14 32 -14 25 0 25 -112 1 -127 -10 -7
-16 -17 -13 -24 7 -18 -66 -72 -106 -79 -82 -13 -99 -13 -124 4 -29 18 -60 56
-70 85 -10 25 39 110 59 102 8 -3 14 -2 14 2 0 5 6 17 14 28 14 17 15 16 14
-25 0 -27 6 -52 19 -69 23 -31 50 -49 59 -39 15 14 6 87 -15 123 -15 25 -19
39 -11 44 18 11 110 3 127 -11z"/>
<path d="M3575 3870 c3 -5 8 -10 11 -10 2 0 4 5 4 10 0 6 -5 10 -11 10 -5 0
-7 -4 -4 -10z"/>
<path d="M3347 3801 c-14 -5 -9 -13 32 -45 28 -21 56 -36 62 -34 8 3 7 8 -4
18 -32 31 -57 49 -58 42 0 -4 -3 0 -7 9 -5 10 -13 14 -25 10z"/>
<path d="M3475 3700 c-3 -5 1 -10 9 -10 9 0 16 5 16 10 0 6 -4 10 -9 10 -6 0
-13 -4 -16 -10z"/>
<path d="M3530 4180 c0 -5 7 -10 16 -10 8 0 12 5 9 10 -3 6 -10 10 -16 10 -5
0 -9 -4 -9 -10z"/>
<path d="M3798 4173 c7 -3 16 -2 19 1 4 3 -2 6 -13 5 -11 0 -14 -3 -6 -6z"/>
<path d="M2430 4154 c0 -8 5 -12 10 -9 6 4 8 11 5 16 -9 14 -15 11 -15 -7z"/>
<path d="M3266 4161 c-3 -5 0 -11 7 -14 8 -3 14 1 14 9 0 16 -13 19 -21 5z"/>
<path d="M3386 4161 c-4 -7 -5 -15 -2 -18 9 -9 19 4 14 18 -4 11 -6 11 -12 0z"/>
<path d="M2590 4129 c13 -45 18 -46 18 -5 0 23 -5 36 -13 36 -10 0 -11 -7 -5
-31z"/>
<path d="M2790 4135 c7 -9 15 -13 17 -11 7 7 -7 26 -19 26 -6 0 -6 -6 2 -15z"/>
<path d="M3560 4146 c0 -2 7 -7 16 -10 8 -3 12 -2 9 4 -6 10 -25 14 -25 6z"/>
<path d="M3318 4133 c6 -2 10 -9 6 -14 -3 -5 -1 -9 5 -9 17 0 21 18 5 24 -9 3
-19 6 -22 5 -4 0 -1 -3 6 -6z"/>
<path d="M3625 4130 c-3 -5 3 -10 14 -10 12 0 21 5 21 10 0 6 -6 10 -14 10 -8
0 -18 -4 -21 -10z"/>
<path d="M3711 4099 c18 -11 52 -11 45 0 -3 5 -17 9 -32 9 -18 0 -22 -3 -13
-9z"/>
<path d="M3810 4106 c0 -2 7 -6 15 -10 8 -3 15 -1 15 4 0 6 -7 10 -15 10 -8 0
-15 -2 -15 -4z"/>
<path d="M2622 4080 c-1 -15 -7 -31 -14 -38 -14 -14 -7 -24 11 -13 8 5 11 21
8 42 -3 25 -4 27 -5 9z"/>
<path d="M2640 4090 c0 -5 5 -10 11 -10 5 0 7 5 4 10 -3 6 -8 10 -11 10 -2 0
-4 -4 -4 -10z"/>
<path d="M3499 4084 c-11 -14 -10 -16 9 -12 13 1 23 7 23 13 1 17 -17 16 -32
-1z"/>
<path d="M3788 4083 c7 -3 16 -2 19 1 4 3 -2 6 -13 5 -11 0 -14 -3 -6 -6z"/>
<path d="M3848 4073 c7 -3 16 -2 19 1 4 3 -2 6 -13 5 -11 0 -14 -3 -6 -6z"/>
<path d="M2156 4057 c3 -10 9 -15 12 -12 3 3 0 11 -7 18 -10 9 -11 8 -5 -6z"/>
<path d="M2560 4055 c0 -8 4 -15 10 -15 5 0 7 7 4 15 -4 8 -8 15 -10 15 -2 0
-4 -7 -4 -15z"/>
<path d="M2815 4060 c-3 -5 -4 -10 -1 -10 2 0 12 -3 20 -6 12 -5 15 -2 10 10
-7 18 -20 21 -29 6z"/>
<path d="M2130 4050 c0 -5 5 -10 11 -10 5 0 7 5 4 10 -3 6 -8 10 -11 10 -2 0
-4 -4 -4 -10z"/>
<path d="M2220 4040 c0 -5 5 -10 11 -10 5 0 7 5 4 10 -3 6 -8 10 -11 10 -2 0
-4 -4 -4 -10z"/>
<path d="M2641 4034 c0 -11 3 -14 6 -6 3 7 2 16 -1 19 -3 4 -6 -2 -5 -13z"/>
<path d="M2290 4030 c8 -5 20 -10 25 -10 6 0 3 5 -5 10 -8 5 -19 10 -25 10 -5
0 -3 -5 5 -10z"/>
<path d="M2551 4014 c0 -11 3 -14 6 -6 3 7 2 16 -1 19 -3 4 -6 -2 -5 -13z"/>
<path d="M3241 3984 c-11 -13 -17 -24 -12 -24 6 0 13 5 16 11 4 6 16 14 28 18
16 6 17 9 5 14 -10 3 -24 -4 -37 -19z"/>
<path d="M2520 3991 c0 -6 4 -13 10 -16 6 -3 7 1 4 9 -7 18 -14 21 -14 7z"/>
<path d="M2627 3981 c2 -10 11 -18 19 -18 15 0 17 7 6 22 -13 18 -30 15 -25
-4z"/>
<path d="M2341 3971 c-7 -12 -17 -19 -24 -15 -7 3 -1 -3 13 -14 27 -23 40 -21
21 2 -10 11 -9 15 3 18 10 2 13 8 7 17 -7 11 -11 9 -20 -8z"/>
<path d="M2815 3980 c3 -5 8 -10 11 -10 2 0 4 5 4 10 0 6 -5 10 -11 10 -5 0
-7 -4 -4 -10z"/>
<path d="M3310 3980 c0 -5 7 -10 16 -10 8 0 12 5 9 10 -3 6 -10 10 -16 10 -5
0 -9 -4 -9 -10z"/>
<path d="M2176 3966 c3 -9 13 -16 22 -16 8 0 13 1 11 3 -2 1 -12 9 -22 16 -15
12 -17 12 -11 -3z"/>
<path d="M3120 3961 c0 -5 5 -13 10 -16 6 -3 10 -2 10 4 0 5 -4 13 -10 16 -5
3 -10 2 -10 -4z"/>
<path d="M2741 3944 c0 -11 3 -14 6 -6 3 7 2 16 -1 19 -3 4 -6 -2 -5 -13z"/>
<path d="M2857 3940 c3 -11 9 -20 13 -20 5 0 6 9 3 20 -3 11 -9 20 -13 20 -5
0 -6 -9 -3 -20z"/>
<path d="M3245 3949 c-11 -17 1 -21 15 -4 8 9 8 15 2 15 -6 0 -14 -5 -17 -11z"/>
<path d="M3285 3950 c-3 -5 -2 -10 4 -10 5 0 13 5 16 10 3 6 2 10 -4 10 -5 0
-13 -4 -16 -10z"/>
<path d="M2607 3936 c-11 -29 -8 -33 20 -33 22 0 24 1 12 11 -9 6 -18 18 -21
25 -3 12 -6 11 -11 -3z"/>
<path d="M2640 3940 c0 -6 4 -9 9 -6 5 4 12 1 14 -4 3 -6 4 -5 3 2 -3 15 -26
23 -26 8z"/>
<path d="M3050 3930 c0 -5 5 -10 11 -10 5 0 7 5 4 10 -3 6 -8 10 -11 10 -2 0
-4 -4 -4 -10z"/>
<path d="M3190 3918 c0 -12 1 -19 3 -17 1 2 9 12 16 22 12 14 11 17 -3 17 -10
0 -16 -8 -16 -22z"/>
<path d="M3945 3900 c-8 -13 5 -13 25 0 13 8 13 10 -2 10 -9 0 -20 -4 -23 -10z"/>
<path d="M2215 3880 c-4 -6 7 -10 25 -10 18 0 29 -4 25 -10 -3 -5 3 -10 14
-10 23 0 29 18 9 24 -40 13 -68 15 -73 6z"/>
<path d="M2997 3882 c-5 -7 0 -22 12 -38 15 -20 21 -22 21 -10 0 9 -4 16 -9
16 -5 0 -11 10 -13 23 -2 15 -5 18 -11 9z"/>
<path d="M2180 3854 c0 -9 40 -23 44 -15 3 5 -5 11 -19 13 -14 3 -25 4 -25 2z"/>
<path d="M1750 3825 c0 -8 4 -15 9 -15 5 0 14 7 21 15 10 13 9 15 -9 15 -12 0
-21 -6 -21 -15z"/>
<path d="M2627 3833 c-4 -3 -7 -13 -7 -22 1 -13 3 -13 11 2 11 19 8 33 -4 20z"/>
<path d="M2070 3819 c0 -5 5 -7 10 -4 6 3 10 8 10 11 0 2 -4 4 -10 4 -5 0 -10
-5 -10 -11z"/>
<path d="M2105 3820 c3 -5 10 -10 16 -10 5 0 9 5 9 10 0 6 -7 10 -16 10 -8 0
-12 -4 -9 -10z"/>
<path d="M2683 3809 c4 -13 7 -27 7 -31 0 -5 4 -8 9 -8 11 0 1 49 -12 57 -6 4
-8 -2 -4 -18z"/>
<path d="M2936 3797 c3 -10 9 -15 12 -12 3 3 0 11 -7 18 -10 9 -11 8 -5 -6z"/>
<path d="M1890 3779 c0 -10 34 -29 49 -29 25 0 8 28 -19 32 -16 3 -30 1 -30
-3z"/>
<path d="M3790 3630 c-9 -6 -10 -10 -3 -10 6 0 15 5 18 10 8 12 4 12 -15 0z"/>
<path d="M1773 3604 c0 -16 13 -19 21 -5 3 5 0 11 -7 14 -8 3 -14 -1 -14 -9z"/>
<path d="M1967 3606 c-4 -10 -1 -13 8 -9 8 3 12 9 9 14 -7 12 -11 11 -17 -5z"/>
<path d="M1750 3501 c0 -7 -10 -16 -22 -21 -21 -8 -21 -9 -3 -10 19 -1 19 -2
-3 -20 -13 -10 -28 -17 -35 -15 -7 3 -23 -5 -37 -16 l-25 -20 33 4 c36 4 38 2
18 -19 -8 -8 -22 -11 -30 -8 -9 3 -16 1 -16 -5 0 -6 12 -11 28 -11 26 -1 26
-1 8 -15 -20 -15 -20 -15 0 -16 10 -1 25 -1 32 0 25 4 6 -30 -20 -35 -5 -1
-11 -2 -14 -3 -3 0 1 -7 8 -15 20 -19 79 -9 85 15 3 11 10 19 17 19 6 0 4 5
-4 10 -11 7 -11 10 -2 10 18 0 -3 38 -35 63 l-23 18 33 32 c18 18 33 38 32 46
0 17 -25 28 -25 12z m-15 -211 c-3 -5 -11 -10 -16 -10 -6 0 -7 5 -4 10 3 6 11
10 16 10 6 0 7 -4 4 -10z"/>
<path d="M1625 3480 c-4 -6 3 -10 14 -10 25 0 27 6 6 13 -8 4 -17 2 -20 -3z"/>
<path d="M1857 3479 c7 -7 15 -10 18 -7 3 3 -2 9 -12 12 -14 6 -15 5 -6 -5z"/>
<path d="M1630 3450 c-8 -5 -11 -10 -6 -10 6 0 1 -7 -10 -15 -17 -13 -15 -13
16 -1 35 14 52 36 28 36 -7 0 -20 -5 -28 -10z"/>
<path d="M3675 3420 c-3 -5 -2 -10 4 -10 5 0 13 5 16 10 3 6 2 10 -4 10 -5 0
-13 -4 -16 -10z"/>
<path d="M1560 3410 c-13 -8 -13 -10 2 -10 9 0 20 5 23 10 8 13 -5 13 -25 0z"/>
<path d="M3288 3403 c6 -2 18 -2 25 0 6 3 1 5 -13 5 -14 0 -19 -2 -12 -5z"/>
<path d="M2727 3333 c-4 -6 -4 -19 0 -29 5 -13 3 -16 -10 -11 -17 6 -24 -7 -9
-17 14 -8 6 -56 -12 -69 -16 -12 -16 -14 5 -41 12 -16 47 -39 76 -52 95 -42
205 -178 165 -203 -5 -3 -11 -15 -13 -26 -5 -23 -38 -33 -49 -15 -8 14 -30 5
-30 -11 0 -6 5 -7 11 -3 7 4 10 2 8 -5 -3 -7 -7 -12 -9 -11 -34 7 -50 14 -50
21 0 5 -9 9 -20 9 -12 0 -20 -7 -20 -17 0 -14 2 -15 9 -5 13 21 29 -8 20 -38
-4 -14 -8 -20 -8 -15 -1 6 -5 4 -10 -4 -6 -9 -11 -10 -15 -2 -4 6 -2 11 3 11
6 0 11 5 11 10 0 23 -21 8 -26 -19 -4 -19 -11 -28 -19 -25 -7 3 -16 1 -19 -5
-5 -7 -15 -7 -33 0 -20 7 -30 6 -43 -6 -9 -8 -20 -15 -23 -15 -14 0 -7 29 9
38 20 11 15 56 -8 60 -9 2 -26 -7 -37 -19 -17 -18 -21 -19 -21 -7 0 13 -8 16
-35 14 -20 -2 -37 0 -40 3 -2 4 -24 6 -50 6 -40 -2 -50 -7 -82 -44 -20 -24
-82 -78 -137 -121 -123 -95 -180 -149 -183 -176 -5 -41 -10 -55 -21 -66 -18
-18 -16 6 4 43 8 17 14 33 11 35 -6 6 -200 -180 -238 -227 -24 -30 -29 -43
-20 -52 8 -8 14 -8 23 1 15 15 32 16 23 2 -3 -5 -5 -10 -3 -10 2 0 21 -7 43
-15 33 -12 36 -14 15 -15 -25 -2 -25 -2 3 -12 17 -6 26 -15 23 -23 -5 -13 41
-28 56 -18 18 10 7 31 -13 26 -16 -4 -20 -2 -17 8 2 8 17 15 31 17 27 3 38 21
15 23 -7 0 -4 5 8 11 12 5 27 22 35 38 8 15 31 52 52 83 21 30 40 63 41 73 2
11 8 19 13 19 6 0 57 54 113 120 57 66 121 137 144 158 33 31 38 40 26 47 -8
6 -23 10 -33 10 -10 0 -15 5 -12 11 5 6 31 8 70 5 45 -4 65 -2 69 7 3 8 5 8 5
-2 1 -11 4 -11 16 -1 12 10 15 9 15 -4 0 -12 7 -15 25 -12 13 3 30 8 36 12 9
5 10 0 6 -17 -4 -13 -7 -30 -7 -36 0 -8 -13 -13 -30 -13 -16 0 -30 5 -30 11 0
5 -4 8 -8 5 -17 -10 -62 -14 -62 -5 0 21 -40 6 -78 -31 -23 -21 -42 -42 -42
-46 0 -4 11 3 26 17 14 13 22 17 18 9 -3 -8 -29 -35 -57 -60 -28 -25 -47 -39
-42 -31 5 10 4 12 -4 7 -6 -4 -8 -12 -5 -18 3 -5 -7 -24 -23 -41 -52 -57 -84
-107 -77 -120 4 -6 3 -9 -1 -4 -5 4 -20 -3 -33 -15 -14 -13 -22 -16 -18 -8 4
8 -9 -3 -28 -25 -20 -22 -40 -52 -45 -67 -9 -26 -8 -28 15 -28 13 0 24 -4 24
-8 0 -5 15 -7 33 -5 l32 3 -30 -15 -30 -14 57 -1 c31 0 58 -3 61 -7 2 -5 2 -3
1 4 -4 18 20 33 36 23 8 -5 19 -5 25 0 8 7 12 5 12 -5 0 -10 -11 -15 -31 -16
-30 -1 -30 -1 -6 -9 16 -5 19 -8 8 -9 -9 -1 -19 -5 -23 -10 -3 -6 8 -6 27 0
18 6 41 13 51 16 9 3 17 12 17 20 0 11 5 13 18 8 9 -4 31 -10 47 -13 30 -6 30
-6 5 -13 -23 -6 -23 -7 -3 -8 12 -1 25 -6 29 -13 7 -12 -42 -7 -78 7 -10 4
-18 3 -18 -3 0 -5 9 -12 21 -15 12 -3 18 -10 14 -16 -7 -13 -37 -14 -51 -2
-12 11 -96 2 -88 -10 3 -5 22 -9 42 -9 26 0 42 -6 52 -20 15 -21 50 -28 50
-10 0 6 -7 10 -15 10 -8 0 -15 4 -15 9 0 5 11 8 24 5 14 -2 27 0 31 6 4 6 -1
7 -11 3 -12 -4 -15 -3 -10 5 10 16 31 15 46 -3 15 -18 54 -21 44 -2 -6 9 -4 9
7 0 7 -7 22 -13 33 -13 38 0 2 -19 -44 -23 l-45 -4 48 -1 c26 -1 47 -6 47 -12
0 -5 9 -10 19 -10 24 0 38 -19 22 -30 -7 -4 -11 -11 -10 -16 4 -23 -3 -31 -26
-31 -14 0 -25 3 -25 7 0 5 -12 13 -27 18 -16 6 -22 11 -15 11 24 2 12 17 -23
30 -21 7 -49 10 -67 6 -21 -5 -28 -4 -24 4 5 7 -2 11 -16 11 -14 0 -19 -3 -11
-8 14 -9 5 -27 -17 -34 -12 -5 -12 -7 4 -13 11 -5 21 -3 25 4 9 14 61 -2 61
-19 0 -7 6 -8 19 0 27 14 30 13 25 -7 -4 -13 -14 -18 -37 -17 -50 2 -53 4 -37
14 13 8 13 10 -1 10 -9 0 -19 -3 -23 -7 -8 -8 -13 -9 -40 -12 -22 -2 -15 -41
6 -41 21 0 24 16 6 23 -7 3 -1 6 15 6 24 1 32 -8 28 -31 0 -5 4 -8 10 -8 6 0
9 6 6 14 -4 9 2 14 19 14 13 -1 21 -4 18 -9 -3 -5 1 -9 8 -10 7 0 28 -1 45 -2
32 -2 46 -18 22 -26 -7 -2 -9 1 -5 8 4 6 3 11 -2 11 -6 0 -12 -7 -16 -15 -3
-8 -1 -14 4 -12 5 1 15 -6 22 -17 13 -17 16 -17 31 -2 17 18 15 54 -5 69 -9 6
-7 7 5 3 10 -3 21 -6 23 -6 2 0 4 -7 4 -15 0 -10 6 -12 18 -8 15 6 15 5 3 -10
-12 -15 -11 -17 3 -17 9 0 16 -4 16 -8 0 -13 -48 -32 -65 -26 -8 4 -15 1 -15
-5 0 -6 13 -10 28 -9 15 1 32 -1 37 -4 14 -9 48 18 40 31 -6 10 15 15 53 14 6
-1 12 3 12 8 0 5 11 7 25 3 15 -4 25 -2 25 5 0 6 7 8 16 4 16 -6 16 -7 0 -18
-14 -11 -14 -14 -2 -18 19 -8 57 3 50 14 -3 5 2 6 11 3 23 -9 47 26 32 45 -9
11 -9 15 0 18 13 5 6 33 -9 33 -5 0 -6 -5 -3 -10 4 -6 1 -17 -5 -25 -10 -12
-9 -16 4 -21 27 -10 9 -20 -29 -16 l-35 4 25 22 c14 12 22 25 19 29 -11 11
-54 8 -54 -3 0 -5 5 -10 12 -10 20 0 -4 -18 -34 -25 -22 -6 -28 -4 -28 9 0 9
7 16 16 16 9 0 12 -5 8 -12 -5 -7 -3 -8 6 -3 10 6 9 11 -5 22 -13 9 -22 10
-29 3 -13 -13 -26 -13 -26 0 0 6 7 10 16 10 8 0 12 5 9 10 -9 14 8 13 23 -2 9
-9 15 -9 25 1 10 11 9 13 -5 8 -10 -4 -18 -2 -18 3 0 6 8 10 18 10 16 1 16 1
0 10 -9 6 -27 8 -40 6 -13 -3 -26 -5 -30 -5 -5 -1 -8 -7 -8 -13 0 -7 -11 -13
-25 -13 -14 0 -25 6 -25 13 0 7 -4 10 -10 7 -5 -3 -10 -1 -10 4 0 6 5 11 10
11 6 0 10 7 10 15 0 8 -5 15 -11 15 -5 0 -7 5 -4 10 4 6 11 8 16 4 5 -3 16 -1
24 6 11 9 12 7 8 -9 -4 -17 -1 -21 21 -21 14 0 26 5 26 10 0 6 15 10 33 10 22
0 28 -3 18 -9 -19 -12 -2 -20 58 -26 29 -3 57 -7 62 -11 5 -3 9 -1 9 5 0 5 16
19 36 32 27 16 38 19 44 10 5 -10 9 -9 13 3 4 9 16 16 27 16 17 0 20 4 15 20
-4 14 -2 20 9 20 12 0 14 5 6 24 -7 19 -5 26 6 30 9 3 20 4 25 0 5 -3 19 2 31
10 16 11 18 16 7 16 -8 0 -20 -5 -26 -11 -7 -7 -12 -6 -16 5 -5 11 -1 16 13
16 10 0 22 5 26 11 5 8 10 6 16 -5 11 -20 35 -21 55 0 11 11 13 18 5 23 -22
13 19 43 76 56 18 3 32 12 32 18 0 9 2 9 8 1 9 -15 87 -3 88 14 3 25 5 27 14
12 8 -12 15 -11 48 8 22 12 48 22 58 22 9 0 26 7 36 17 14 12 18 13 18 3 0
-10 3 -11 10 -4 16 16 -2 49 -25 49 -12 0 -19 6 -17 15 3 12 0 12 -15 -2 -18
-16 -49 -18 -71 -4 -7 4 -12 2 -12 -4 0 -6 -10 -4 -24 5 -23 16 -24 15 -19 -5
4 -16 0 -23 -16 -27 -11 -3 -21 -9 -21 -14 0 -13 -71 -29 -107 -24 -18 2 -33
0 -33 -4 0 -5 -11 -7 -25 -6 -14 2 -27 -1 -30 -6 -3 -4 -32 -6 -63 -3 -44 3
-62 10 -79 30 -22 23 -22 26 -7 49 15 23 15 25 0 25 -13 0 -15 7 -11 31 3 18
10 40 16 50 10 20 29 26 29 9 0 -5 7 -10 15 -10 23 0 18 30 -7 39 -13 5 -26 7
-29 5 -4 -2 -9 6 -12 17 -5 20 -5 20 14 4 15 -15 21 -15 34 -5 13 10 15 9 15
-9 0 -14 4 -20 11 -15 8 4 9 0 4 -15 -4 -12 -2 -21 4 -21 6 0 11 8 11 17 0 12
3 14 10 7 8 -8 7 -20 0 -39 -8 -21 -8 -30 1 -36 6 -4 9 -11 6 -16 -3 -5 3 -14
13 -21 12 -7 21 -8 25 -2 4 6 -1 13 -9 16 -9 3 -16 10 -16 16 0 5 5 6 10 3 6
-3 10 1 10 9 0 9 4 16 10 16 5 0 8 13 6 30 -2 17 1 27 6 23 6 -3 14 0 18 7 5
8 9 5 13 -9 3 -14 1 -19 -6 -14 -7 4 -6 -1 2 -10 17 -21 31 -13 24 13 -3 11 0
20 6 20 6 0 11 -5 11 -11 0 -7 9 -9 23 -5 14 3 35 -2 55 -14 42 -26 46 -25 20
5 -11 13 -24 23 -27 21 -3 -2 -4 17 -2 42 l3 46 26 -29 c24 -28 72 -60 72 -48
0 4 -7 15 -17 25 -18 20 -4 25 28 7 18 -9 19 -7 17 14 -2 14 -9 32 -16 40 -16
19 -2 18 42 -4 23 -11 30 -11 34 -1 2 6 9 12 16 12 7 0 13 7 13 15 0 8 -4 15
-9 15 -5 0 -6 5 -3 10 9 14 45 12 45 -2 0 -9 4 -8 10 2 13 20 12 26 -6 44 -9
9 -11 16 -4 16 6 0 8 5 4 13 -5 8 -3 8 9 -2 9 -7 15 -16 13 -20 -3 -4 5 -8 17
-8 17 -2 19 0 7 7 -12 8 -11 11 8 16 26 7 28 17 7 34 -8 7 -15 17 -15 23 0 6
12 0 26 -14 l27 -24 -6 23 c-3 12 -1 22 4 22 5 0 9 -4 9 -8 0 -5 7 -9 15 -9
18 0 19 9 3 25 -15 15 -64 16 -73 2 -3 -5 -15 -10 -26 -10 -10 0 -19 -4 -19
-10 0 -5 -8 -6 -17 -3 -12 5 -15 2 -10 -10 7 -20 -4 -22 -21 -5 -8 8 -15 8
-26 -1 -15 -13 -69 -7 -74 8 -2 5 -11 7 -22 4 -11 -3 -16 -11 -13 -19 3 -8 0
-14 -6 -14 -6 0 -11 4 -11 9 0 5 -10 11 -22 13 -12 2 -24 9 -26 17 -3 10 0 12
13 7 12 -4 16 -2 12 8 -4 11 -1 13 10 9 11 -4 14 -2 11 8 -2 7 -17 15 -31 16
-24 2 -27 -2 -27 -28 0 -16 -2 -29 -6 -29 -3 0 -19 13 -37 30 -36 34 -45 36
-53 15 -4 -8 -10 -15 -15 -15 -5 0 -9 7 -9 15 0 22 -15 18 -33 -7 l-16 -23 6
25 c4 14 11 29 17 33 6 5 0 5 -13 2 -19 -6 -23 -4 -18 9 4 11 1 16 -9 16 -12
0 -15 -6 -11 -22 l6 -23 -16 23 c-8 12 -21 22 -28 22 -16 0 -29 48 -17 63 6 7
13 28 17 47 11 50 37 100 52 100 7 0 13 4 13 10 0 5 14 23 31 41 22 22 28 34
20 42 -8 8 -15 5 -26 -9 -9 -12 -14 -14 -15 -6 0 7 -5 10 -10 7 -6 -4 -17 -2
-24 4 -16 14 -106 10 -107 -4 0 -5 -4 -1 -9 10 -7 17 -9 17 -9 3 -1 -12 -6
-15 -18 -11 -10 4 -21 11 -24 16 -4 5 -9 5 -13 -2 -4 -6 -2 -11 3 -11 6 0 11
-5 11 -11 0 -6 -6 -9 -14 -6 -8 3 -17 3 -20 -1 -4 -3 -31 -5 -60 -3 -43 2 -57
-1 -66 -16 -10 -16 -10 -15 -4 6 4 17 3 21 -6 16 -9 -6 -9 -3 -1 14 13 23 1
95 -12 74z m708 -603 c3 -5 2 -10 -4 -10 -5 0 -13 5 -16 10 -3 6 -2 10 4 10 5
0 13 -4 16 -10z m-820 -10 c3 -5 1 -10 -4 -10 -6 0 -11 5 -11 10 0 6 2 10 4
10 3 0 8 -4 11 -10z m615 -40 c0 -5 -5 -10 -11 -10 -5 0 -7 5 -4 10 3 6 8 10
11 10 2 0 4 -4 4 -10z m145 0 c3 -5 -1 -10 -10 -10 -9 0 -13 5 -10 10 3 6 8
10 10 10 2 0 7 -4 10 -10z m-165 -26 c31 -20 36 -29 27 -39 -9 -10 -17 -6 -35
22 -23 33 -42 36 -42 7 0 -8 -4 -12 -10 -9 -8 5 7 45 18 45 1 0 20 -12 42 -26z
m48 -9 c-3 -3 -9 2 -12 12 -6 14 -5 15 5 6 7 -7 10 -15 7 -18z m-1018 1 c0 -2
-8 -10 -17 -17 -16 -13 -17 -12 -4 4 13 16 21 21 21 13z m157 -78 c-54 -71
-107 -158 -107 -173 0 -3 7 -5 15 -5 8 0 15 -2 15 -4 0 -2 3 -12 7 -21 6 -16
4 -16 -20 0 -24 16 -27 16 -27 1 0 -9 -5 -16 -11 -16 -7 0 -9 10 -5 26 6 24 5
24 -16 13 -21 -11 -22 -11 -9 5 8 9 20 15 28 12 8 -4 18 5 24 21 15 41 150
223 164 223 2 0 -24 -37 -58 -82z m787 67 c3 -8 1 -15 -4 -15 -6 0 -10 7 -10
15 0 8 2 15 4 15 2 0 6 -7 10 -15z m-237 -23 c15 -9 10 -48 -6 -44 -6 1 -11
-5 -11 -13 0 -8 -4 -15 -10 -15 -14 0 -12 12 6 39 16 22 16 22 -5 9 -14 -9
-21 -23 -21 -45 0 -35 14 -52 24 -28 3 8 10 15 16 15 8 0 8 -6 0 -20 -6 -10
-9 -23 -8 -27 3 -11 -32 -76 -39 -70 -2 3 1 15 7 27 13 24 14 23 -17 39 -23
12 -32 41 -13 41 6 0 10 9 10 20 0 31 31 80 50 80 3 0 10 -4 17 -8z m-282 -82
c3 -5 1 -10 -4 -10 -6 0 -11 5 -11 10 0 6 2 10 4 10 3 0 8 -4 11 -10z m158
-32 c-2 -5 -9 -8 -14 -8 -6 0 -7 5 -4 10 8 12 -1 13 -24 1 -13 -7 -17 -5 -17
9 0 10 4 17 7 14 4 -2 11 1 14 7 8 12 45 -21 38 -33z m-613 -108 c-9 -17 -15
-19 -23 -10 -9 9 -7 15 7 26 25 18 31 12 16 -16z m218 -20 c-6 -22 -15 -40
-20 -40 -6 0 -8 9 -5 19 3 14 1 18 -10 14 -13 -5 -13 -3 -2 15 7 12 20 23 29
26 8 2 16 4 16 5 1 0 -3 -17 -8 -39z m42 16 c0 -18 -19 -31 -28 -21 -4 4 -1
10 6 12 6 3 10 9 6 14 -3 5 0 9 5 9 6 0 11 -6 11 -14z m-519 -83 c13 -16 12
-17 -3 -4 -10 7 -18 15 -18 17 0 8 8 3 21 -13z m54 -3 c3 -5 -3 -10 -15 -10
-12 0 -18 5 -15 10 3 6 10 10 15 10 5 0 12 -4 15 -10z m237 -22 c-7 -7 -12 -8
-12 -2 0 6 3 14 7 17 3 4 9 5 12 2 2 -3 -1 -11 -7 -17z m108 -8 c0 -5 -7 -10
-16 -10 -8 0 -12 5 -9 10 3 6 10 10 16 10 5 0 9 -4 9 -10z m35 0 c3 -5 -1 -10
-10 -10 -9 0 -13 5 -10 10 3 6 8 10 10 10 2 0 7 -4 10 -10z m-438 -56 c-3 -3
-12 -4 -19 -1 -8 3 -5 6 6 6 11 1 17 -2 13 -5z m539 -17 c2 -13 -2 -17 -13
-13 -8 3 -17 6 -19 6 -2 0 -4 7 -4 16 0 22 32 14 36 -9z m40 -17 c0 -11 -5
-20 -11 -20 -6 0 -11 9 -12 20 -1 11 4 20 10 20 7 0 13 -9 13 -20z m91 4 c-3
-3 -12 -4 -19 -1 -8 3 -5 6 6 6 11 1 17 -2 13 -5z m-170 -10 c-3 -3 -12 -4
-19 -1 -8 3 -5 6 6 6 11 1 17 -2 13 -5z m186 -34 c4 -4 -15 -7 -42 -6 -49 1
-64 9 -38 19 15 7 69 -2 80 -13z m251 14 c24 -9 20 -18 -16 -33 -18 -8 -27
-16 -20 -19 15 -5 6 -22 -11 -22 -7 0 -14 11 -15 25 -1 21 3 25 24 25 19 0 25
4 20 15 -6 17 -4 18 18 9z m-70 -19 c-4 -8 -10 -15 -15 -15 -4 0 -6 7 -3 15 4
8 10 15 15 15 4 0 6 -7 3 -15z m-94 -16 c0 -14 -16 -11 -29 5 -10 12 -8 13 8
9 12 -3 21 -9 21 -14z m30 11 c0 -5 -5 -10 -11 -10 -5 0 -7 5 -4 10 3 6 8 10
11 10 2 0 4 -4 4 -10z m-349 -68 c-7 -2 -18 1 -23 6 -8 8 -4 9 13 5 13 -4 18
-8 10 -11z m222 -65 c-2 -4 -5 -7 -8 -7 -3 0 -9 0 -15 0 -5 0 -10 4 -10 9 0 5
8 8 18 7 9 -2 16 -6 15 -9z m7 -37 c8 -5 11 -12 8 -16 -10 -9 -38 3 -38 16 0
12 10 13 30 0z"/>
<path d="M3545 3289 c-4 -6 -5 -13 -2 -16 7 -7 27 6 27 18 0 12 -17 12 -25 -2z"/>
<path d="M1856 3275 c4 -8 13 -15 21 -15 12 0 12 2 -1 15 -8 8 -17 15 -20 15
-3 0 -3 -7 0 -15z"/>
<path d="M1775 3270 c-4 -6 7 -10 27 -9 27 0 30 2 13 9 -27 12 -33 12 -40 0z"/>
<path d="M1965 3260 c-3 -5 1 -10 9 -10 9 0 16 5 16 10 0 6 -4 10 -9 10 -6 0
-13 -4 -16 -10z"/>
<path d="M3610 3253 c0 -32 53 -43 86 -18 18 15 16 15 -21 11 -22 -2 -45 0
-52 6 -7 6 -13 6 -13 1z"/>
<path d="M1627 3233 c-12 -12 -7 -20 20 -32 29 -14 49 -2 40 23 -6 16 -48 22
-60 9z"/>
<path d="M3455 3229 c-4 -6 -4 -13 -1 -16 8 -8 36 5 36 17 0 13 -27 13 -35 -1z"/>
<path d="M1900 3210 c0 -13 11 -13 30 0 12 8 11 10 -7 10 -13 0 -23 -4 -23
-10z"/>
<path d="M1988 3213 c6 -2 18 -2 25 0 6 3 1 5 -13 5 -14 0 -19 -2 -12 -5z"/>
<path d="M3706 3205 c-6 -16 22 -35 51 -34 14 0 12 3 -8 12 -14 7 -24 18 -22
25 6 17 -14 15 -21 -3z"/>
<path d="M1725 3195 c-28 -12 -28 -13 -7 -14 13 -1 30 6 38 14 19 18 9 18 -31
0z"/>
<path d="M2177 3199 c7 -7 15 -10 18 -7 3 3 -2 9 -12 12 -14 6 -15 5 -6 -5z"/>
<path d="M3371 3193 c7 -10 14 -20 16 -22 1 -1 7 0 13 4 8 5 5 11 -7 21 -25
19 -38 17 -22 -3z"/>
<path d="M1805 3190 c3 -5 8 -10 11 -10 2 0 4 5 4 10 0 6 -5 10 -11 10 -5 0
-7 -4 -4 -10z"/>
<path d="M2056 3192 c-3 -6 1 -13 10 -16 23 -9 28 -2 10 13 -8 7 -17 8 -20 3z"/>
<path d="M4055 3190 c3 -5 11 -10 16 -10 6 0 7 5 4 10 -3 6 -11 10 -16 10 -6
0 -7 -4 -4 -10z"/>
<path d="M1945 3180 c3 -5 11 -10 16 -10 6 0 7 5 4 10 -3 6 -11 10 -16 10 -6
0 -7 -4 -4 -10z"/>
<path d="M1754 3158 c-4 -5 -16 -14 -28 -19 -17 -8 -15 -9 12 -5 17 3 32 1 32
-4 0 -13 -22 -24 -45 -24 -17 1 -17 0 -2 -3 11 -3 16 -10 13 -19 -3 -8 1 -14
10 -14 8 0 12 -4 9 -10 -3 -5 2 -10 11 -10 16 0 16 -1 0 -19 -10 -10 -27 -22
-39 -25 -21 -5 -20 -4 3 14 l25 19 -25 -6 c-14 -3 -33 -12 -43 -18 -10 -7 -27
-11 -38 -8 -10 3 -19 1 -19 -5 0 -6 8 -12 17 -14 15 -3 15 -4 -1 -20 -18 -19
-13 -22 32 -18 32 2 27 -5 -15 -26 -21 -9 -32 -19 -25 -22 9 -3 10 -8 3 -16
-7 -8 -4 -16 11 -25 11 -7 17 -8 13 -2 -3 6 1 11 9 11 8 0 18 -4 21 -10 3 -5
1 -10 -6 -10 -7 0 -10 -3 -7 -6 4 -3 30 1 60 10 29 8 114 32 188 52 74 20 141
38 147 40 9 2 6 11 -10 27 -17 18 -26 21 -42 14 -18 -9 -19 -8 -6 6 10 13 10
17 1 17 -7 0 -20 8 -29 18 -37 39 -50 45 -68 31 -17 -13 -17 -13 0 7 22 27 13
35 -24 22 -17 -6 -33 -8 -36 -4 -4 3 -1 6 5 6 6 0 9 6 6 14 -3 8 -15 11 -30 8
-14 -2 -24 0 -24 7 0 8 -7 7 -22 -3 -29 -21 -44 -20 -27 0 19 23 21 51 3 51
-8 0 -17 -4 -20 -9z m75 -57 c10 -7 11 -13 2 -30 -9 -16 -9 -21 1 -21 6 0 3
-7 -8 -16 -18 -14 -18 -15 6 -8 14 3 22 3 18 -1 -11 -11 -68 -14 -68 -3 0 4 6
8 14 8 16 0 16 31 1 42 -6 5 -5 8 3 8 6 0 12 5 12 11 0 5 -5 7 -12 3 -7 -4 -8
-3 -4 4 8 14 16 15 35 3z m-19 -111 c-20 -13 -43 -13 -35 0 3 6 16 10 28 10
18 0 19 -2 7 -10z m72 1 c-11 -6 -8 -13 12 -28 l26 -21 -25 -4 c-14 -3 -25 -2
-25 3 0 4 -13 10 -30 14 -16 4 -30 11 -30 17 0 6 10 8 25 4 18 -5 25 -2 25 9
0 8 8 15 18 15 13 0 14 -2 4 -9z m-187 -81 c-3 -5 -14 -10 -23 -9 -14 0 -13 2
3 9 27 11 27 11 20 0z"/>
<path d="M3625 3160 c3 -5 1 -10 -6 -10 -7 0 -10 -3 -6 -6 3 -3 15 -3 26 1 23
7 19 25 -5 25 -8 0 -12 -4 -9 -10z"/>
<path d="M3985 3160 c3 -5 14 -10 23 -10 15 0 15 2 2 10 -20 13 -33 13 -25 0z"/>
<path d="M1985 3150 c3 -5 14 -10 23 -10 15 0 15 2 2 10 -20 13 -33 13 -25 0z"/>
<path d="M3955 3150 c3 -5 8 -10 11 -10 2 0 4 5 4 10 0 6 -5 10 -11 10 -5 0
-7 -4 -4 -10z"/>
<path d="M3537 3143 c-15 -14 -6 -23 23 -23 32 0 40 14 14 24 -20 8 -29 8 -37
-1z"/>
<path d="M2022 3121 c4 -13 18 -16 19 -4 0 4 -5 9 -11 12 -7 2 -11 -2 -8 -8z"/>
<path d="M3448 3116 c-27 -20 -22 -28 20 -24 25 2 37 8 37 18 0 20 -35 23 -57
6z"/>
<path d="M1890 3110 c19 -13 30 -13 30 0 0 6 -10 10 -22 10 -19 0 -20 -2 -8
-10z"/>
<path d="M2208 3113 c7 -3 16 -2 19 1 4 3 -2 6 -13 5 -11 0 -14 -3 -6 -6z"/>
<path d="M1635 3100 c-3 -5 1 -10 9 -10 8 0 18 5 21 10 3 6 -1 10 -9 10 -8 0
-18 -4 -21 -10z"/>
<path d="M3365 3100 c-3 -5 -1 -10 4 -10 6 0 11 5 11 10 0 6 -2 10 -4 10 -3 0
-8 -4 -11 -10z"/>
<path d="M2137 3078 c-22 -11 -36 -22 -33 -25 3 -3 12 0 20 6 10 8 16 9 21 1
3 -5 16 -10 28 -9 12 0 16 3 9 6 -9 4 -10 8 -2 18 19 22 -3 24 -43 3z"/>
<path d="M1670 3069 c0 -5 5 -7 10 -4 6 3 10 8 10 11 0 2 -4 4 -10 4 -5 0 -10
-5 -10 -11z"/>
<path d="M3620 3065 c-15 -8 -19 -14 -10 -15 28 0 60 12 54 21 -7 12 -14 11
-44 -6z"/>
<path d="M3925 3070 c3 -5 11 -10 16 -10 6 0 7 5 4 10 -3 6 -11 10 -16 10 -6
0 -7 -4 -4 -10z"/>
<path d="M2536 3063 c-11 -11 -6 -23 9 -23 8 0 15 4 15 9 0 13 -16 22 -24 14z"/>
<path d="M3355 3060 c3 -5 8 -10 11 -10 2 0 4 5 4 10 0 6 -5 10 -11 10 -5 0
-7 -4 -4 -10z"/>
<path d="M1685 3050 c-3 -5 -2 -10 4 -10 5 0 13 5 16 10 3 6 2 10 -4 10 -5 0
-13 -4 -16 -10z"/>
<path d="M2372 3043 c-13 -7 -32 -13 -42 -13 -30 0 -53 -12 -40 -20 12 -7 82
6 112 21 24 12 51 11 43 -1 -3 -5 0 -10 8 -10 19 0 41 26 28 34 -15 10 -82 2
-109 -11z"/>
<path d="M3380 3039 c0 -5 5 -7 10 -4 6 3 10 8 10 11 0 2 -4 4 -10 4 -5 0 -10
-5 -10 -11z"/>
<path d="M2150 3031 c-22 -9 -23 -31 -1 -31 24 0 47 26 29 32 -7 3 -20 2 -28
-1z"/>
<path d="M3550 3025 c0 -8 5 -15 10 -15 6 0 10 7 10 15 0 8 -4 15 -10 15 -5 0
-10 -7 -10 -15z"/>
<path d="M3588 3033 c7 -3 16 -2 19 1 4 3 -2 6 -13 5 -11 0 -14 -3 -6 -6z"/>
<path d="M2286 2987 c-16 -7 -30 -20 -32 -30 -3 -21 22 -23 30 -2 3 8 12 15
19 15 8 0 20 7 27 15 16 19 -2 20 -44 2z"/>
<path d="M3477 2993 c-13 -12 -7 -23 13 -23 13 0 18 5 14 15 -7 16 -17 19 -27
8z"/>
<path d="M3820 2960 c0 -5 14 -7 33 -3 45 8 47 13 4 13 -20 0 -37 -4 -37 -10z"/>
<path d="M2383 2949 c-48 -9 -83 -25 -83 -39 0 -15 63 -28 84 -18 13 7 21 6
26 -2 5 -9 9 -9 14 -1 4 6 11 9 16 6 5 -3 11 -1 15 5 9 15 48 13 39 -2 -4 -7
2 -4 15 6 17 16 19 22 9 32 -17 16 -84 22 -135 13z"/>
<path d="M2571 2931 c6 -17 13 -31 16 -31 3 0 3 7 -1 15 -3 9 0 15 10 15 23 0
11 24 -14 28 -20 3 -21 1 -11 -27z"/>
<path d="M3380 2951 c0 -4 11 -6 25 -3 14 2 25 6 25 8 0 2 -11 4 -25 4 -14 0
-25 -4 -25 -9z"/>
<path d="M2895 2929 c-4 -6 -5 -12 -2 -15 2 -3 7 2 10 11 7 17 1 20 -8 4z"/>
<path d="M3630 2930 c0 -5 9 -10 21 -10 11 0 17 5 14 10 -3 6 -13 10 -21 10
-8 0 -14 -4 -14 -10z"/>
<path d="M2084 2905 c-69 -35 -83 -38 -54 -13 15 12 18 19 8 15 -9 -3 -36 -11
-60 -17 -66 -17 -200 -60 -225 -72 -26 -13 -31 -31 -6 -21 11 4 14 3 9 -5 -4
-7 -16 -12 -27 -12 -11 0 -18 -4 -14 -9 3 -5 19 -8 35 -6 51 7 36 -20 -15 -28
-25 -3 -45 -15 -45 -27 0 -4 8 -6 19 -3 25 6 36 -43 12 -57 -12 -6 -7 -9 19
-8 19 0 40 3 45 7 6 3 12 6 15 6 3 1 22 9 44 18 21 9 40 17 41 17 2 0 81 43
177 95 95 52 163 95 151 95 -12 0 -34 11 -49 25 -15 14 -28 25 -29 25 -1 0
-24 -11 -51 -25z m-130 -76 c-10 -11 -28 -25 -39 -31 -11 -6 -4 4 15 20 41 36
51 41 24 11z m-139 -88 c-6 -5 -21 -12 -35 -15 -24 -7 -24 -6 -6 8 21 17 57
23 41 7z m33 -23 c-36 -51 -48 -62 -48 -46 0 13 54 78 65 78 3 0 -5 -15 -17
-32z"/>
<path d="M2255 2910 c-19 -8 -19 -9 3 -9 12 -1 22 4 22 9 0 6 -1 10 -2 9 -2 0
-12 -4 -23 -9z"/>
<path d="M2847 2913 c-4 -3 -7 -11 -7 -17 0 -6 5 -5 12 2 6 6 9 14 7 17 -3 3
-9 2 -12 -2z"/>
<path d="M3430 2880 c0 -5 5 -10 10 -10 6 0 10 5 10 10 0 6 -4 10 -10 10 -5 0
-10 -4 -10 -10z"/>
<path d="M2190 2834 c-61 -33 -64 -36 -15 -19 l20 7 -20 -14 c-11 -8 -92 -59
-179 -113 -88 -54 -175 -112 -194 -129 -19 -17 -41 -31 -48 -32 -25 -4 -254
-190 -254 -206 0 -6 -8 -17 -17 -24 -17 -12 -16 -13 7 -13 16 0 46 19 85 55
33 31 85 74 115 96 75 55 110 89 104 100 -3 4 3 8 12 8 10 0 74 38 143 84 100
67 188 118 298 170 2 1 12 66 10 66 -1 -1 -31 -17 -67 -36z"/>
<path d="M2280 2820 c-19 -17 -66 -47 -105 -68 -179 -98 -551 -364 -627 -449
-17 -19 -17 -19 15 -16 22 3 28 2 18 -5 -20 -14 6 -21 45 -12 45 10 62 -2 45
-33 -10 -18 -19 -23 -38 -19 -18 3 -24 1 -19 -7 10 -15 37 -14 72 3 31 16 454
430 454 445 0 5 35 37 78 71 42 34 76 67 75 74 -2 6 9 16 22 23 15 6 25 7 25
1 0 -5 5 -6 11 -2 8 4 7 9 -2 15 -22 14 -32 11 -69 -21z m-545 -540 c19 -8 19
-9 -2 -9 -12 -1 -25 4 -28 9 -7 12 2 12 30 0z"/>
<path d="M2683 2834 c-7 -3 -2 -15 14 -32 20 -22 26 -24 34 -12 20 33 -10 60
-48 44z"/>
<path d="M3758 2823 c-16 -2 -28 -9 -28 -14 0 -15 36 -10 50 6 7 8 11 14 9 14
-2 -1 -16 -4 -31 -6z"/>
<path d="M1683 2785 c0 -8 4 -12 9 -9 5 3 6 10 3 15 -9 13 -12 11 -12 -6z"/>
<path d="M2222 2715 c-75 -60 -126 -111 -75 -75 110 79 172 126 172 133 2 17
-22 3 -97 -58z"/>
<path d="M3770 2760 c0 -5 5 -10 11 -10 5 0 7 5 4 10 -3 6 -8 10 -11 10 -2 0
-4 -4 -4 -10z"/>
<path d="M1945 2698 c-33 -17 -73 -41 -90 -52 -16 -12 -42 -28 -57 -36 -16 -7
-28 -17 -28 -22 0 -5 -12 -13 -26 -18 -30 -12 -184 -121 -204 -144 -10 -13
-10 -16 2 -16 14 0 240 166 246 181 2 5 8 9 13 9 5 0 50 26 101 57 132 80 146
94 43 41z"/>
<path d="M3658 2723 c7 -3 16 -2 19 1 4 3 -2 6 -13 5 -11 0 -14 -3 -6 -6z"/>
<path d="M3625 2710 c3 -5 11 -10 16 -10 6 0 7 5 4 10 -3 6 -11 10 -16 10 -6
0 -7 -4 -4 -10z"/>
<path d="M3704 2705 c26 -19 42 -19 26 0 -7 8 -20 15 -29 15 -13 -1 -13 -3 3
-15z"/>
<path d="M3547 2699 c7 -7 15 -10 18 -7 3 3 -2 9 -12 12 -14 6 -15 5 -6 -5z"/>
<path d="M3775 2700 c3 -5 14 -10 23 -10 15 0 15 2 2 10 -20 13 -33 13 -25 0z"/>
<path d="M3772 2668 c2 -5 8 -9 13 -9 5 0 11 4 13 9 1 5 -4 9 -13 9 -9 0 -14
-4 -13 -9z"/>
<path d="M3865 2670 c-3 -5 -1 -10 4 -10 6 0 11 5 11 10 0 6 -2 10 -4 10 -3 0
-8 -4 -11 -10z"/>
<path d="M3910 2671 c0 -5 7 -14 15 -21 12 -10 15 -10 15 3 0 8 -7 17 -15 21
-8 3 -15 2 -15 -3z"/>
<path d="M3578 2663 c7 -3 16 -2 19 1 4 3 -2 6 -13 5 -11 0 -14 -3 -6 -6z"/>
<path d="M4060 2660 c0 -5 9 -14 20 -20 16 -8 18 -8 14 4 -6 17 -34 30 -34 16z"/>
<path d="M3700 2650 c-9 -6 -10 -10 -3 -10 6 0 15 5 18 10 8 12 4 12 -15 0z"/>
<path d="M2309 2623 l-24 -28 28 24 c25 23 32 31 24 31 -2 0 -14 -12 -28 -27z"/>
<path d="M3532 2631 c-10 -6 -10 -10 1 -20 12 -9 16 -8 20 3 7 19 -4 27 -21
17z"/>
<path d="M4041 2631 c-8 -5 -30 -7 -49 -4 -23 4 -37 2 -43 -8 -13 -21 -10 -61
5 -82 12 -16 14 -15 20 18 7 38 14 42 35 23 11 -10 13 -10 7 0 -4 6 -2 12 4
12 6 0 8 5 4 12 -5 7 -2 9 8 5 11 -4 18 1 21 14 3 10 4 19 4 19 -1 0 -8 -4
-16 -9z"/>
<path d="M1559 2610 c-20 -16 -21 -19 -6 -20 24 0 22 -17 -4 -25 -22 -7 -20
-32 2 -27 42 10 126 55 126 68 0 8 -7 14 -16 13 -9 -1 -18 0 -21 1 -29 11 -61
7 -81 -10z"/>
<path d="M3577 2609 c7 -7 15 -10 18 -7 3 3 -2 9 -12 12 -14 6 -15 5 -6 -5z"/>
<path d="M1623 2548 c-73 -33 -90 -44 -81 -55 6 -7 17 -13 25 -13 15 0 138 84
149 101 7 12 10 13 -93 -33z"/>
<path d="M3640 2579 c0 -6 -4 -7 -10 -4 -5 3 -10 0 -10 -7 0 -9 -3 -9 -10 2
-8 12 -10 12 -10 1 0 -10 -3 -11 -13 -3 -14 12 -57 5 -57 -9 0 -13 18 -20 22
-8 2 6 13 2 27 -10 13 -11 28 -18 32 -15 5 3 9 -4 9 -15 0 -10 -4 -21 -9 -23
-4 -1 -12 -14 -16 -27 -5 -15 -4 -21 3 -17 6 3 13 0 15 -6 3 -7 6 -3 6 9 1 12
6 25 11 28 14 9 13 -28 -2 -43 -6 -6 -8 -15 -3 -19 4 -5 10 -2 12 5 3 6 10 12
18 12 7 0 20 10 29 23 l17 22 -5 -22 c-3 -18 0 -23 15 -23 10 0 19 -4 19 -10
0 -5 -7 -10 -15 -10 -9 0 -12 -6 -9 -15 4 -8 12 -15 20 -15 8 0 14 -4 14 -10
0 -18 -39 -10 -50 10 -12 23 -35 28 -27 6 3 -8 -2 -16 -14 -19 -13 -4 -19 0
-20 11 0 10 -3 12 -5 5 -3 -7 -12 -9 -20 -6 -21 8 -17 -10 6 -27 27 -19 25
-27 -7 -33 -63 -13 -123 -31 -123 -37 0 -4 7 -13 15 -20 12 -10 15 -10 15 1 1
10 4 9 14 -3 14 -20 28 -14 19 8 -4 10 3 14 22 14 17 0 24 4 19 12 -5 8 -2 9
10 5 10 -4 24 -1 32 8 9 8 27 18 42 21 15 3 43 14 63 25 20 10 53 19 73 19 22
0 35 4 31 10 -3 5 -24 8 -45 6 -22 -2 -40 -1 -41 3 -5 36 -3 61 4 61 4 0 5 5
2 10 -4 6 -11 7 -17 4 -7 -5 -8 -2 -4 5 5 7 14 10 22 7 7 -3 16 -1 19 5 4 5 3
8 -2 7 -4 -2 -9 0 -10 5 -6 16 -2 19 11 7 8 -6 12 -18 9 -26 -3 -8 0 -14 6
-14 11 0 16 19 12 54 -1 16 2 15 25 -7 15 -15 36 -26 48 -26 20 2 20 2 -1 6
-15 3 -25 14 -30 31 -8 33 -23 44 -40 30 -9 -7 -17 -7 -28 2 -12 10 -15 9 -15
-5 0 -12 -5 -15 -16 -11 -9 3 -18 6 -20 6 -2 0 -4 7 -4 15 0 8 -12 17 -27 21
-16 3 -34 7 -40 10 -7 2 -13 -1 -13 -7z"/>
<path d="M3906 2581 c-4 -6 -3 -18 2 -27 6 -11 11 -13 16 -5 4 6 3 18 -2 27
-6 11 -11 13 -16 5z"/>
<path d="M3490 2568 c0 -9 5 -20 11 -23 17 -11 20 0 4 21 -13 17 -14 17 -15 2z"/>
<path d="M3868 2552 c-4 -14 -1 -28 9 -37 18 -18 30 -20 15 -2 -5 6 -12 23
-14 37 -3 25 -3 25 -10 2z"/>
<path d="M3042 2540 c0 -14 2 -19 5 -12 2 6 2 18 0 25 -3 6 -5 1 -5 -13z"/>
<path d="M3140 2541 c0 -5 5 -13 10 -16 6 -3 10 -2 10 4 0 5 -4 13 -10 16 -5
3 -10 2 -10 -4z"/>
<path d="M3370 2546 c0 -2 7 -9 15 -16 12 -10 15 -10 15 4 0 9 -7 16 -15 16
-8 0 -15 -2 -15 -4z"/>
<path d="M2995 2532 c-14 -10 -14 -83 -1 -79 8 3 19 89 12 87 -1 0 -5 -4 -11
-8z"/>
<path d="M1530 2460 c0 -5 -6 -10 -14 -10 -8 0 -18 -4 -21 -10 -11 -17 19 -11
45 10 20 16 22 20 8 20 -10 0 -18 -4 -18 -10z"/>
<path d="M3115 2452 c-8 -20 1 -27 18 -14 8 7 17 9 20 5 4 -3 7 -2 7 4 0 18
-38 22 -45 5z"/>
<path d="M3806 2449 c-16 -19 -16 -23 -3 -36 12 -13 16 -12 31 3 10 9 13 20 8
23 -5 3 -11 12 -13 19 -3 8 -10 6 -23 -9z"/>
<path d="M3925 2460 l-20 -9 20 0 c11 0 27 4 35 9 13 9 13 10 0 9 -8 0 -24 -4
-35 -9z"/>
<path d="M3875 2450 c-3 -5 1 -10 9 -10 9 0 16 5 16 10 0 6 -4 10 -9 10 -6 0
-13 -4 -16 -10z"/>
<path d="M3577 2423 c-13 -13 -7 -21 13 -16 11 3 20 9 20 14 0 10 -24 12 -33
2z"/>
<path d="M4065 2400 c-3 -5 3 -10 15 -10 12 0 18 5 15 10 -3 6 -10 10 -15 10
-5 0 -12 -4 -15 -10z"/>
<path d="M3490 2385 c0 -8 2 -15 4 -15 2 0 6 7 10 15 3 8 1 15 -4 15 -6 0 -10
-7 -10 -15z"/>
<path d="M4158 2393 c7 -3 16 -2 19 1 4 3 -2 6 -13 5 -11 0 -14 -3 -6 -6z"/>
<path d="M1485 2381 c-10 -17 12 -21 25 -6 10 12 10 15 -3 15 -9 0 -18 -4 -22
-9z"/>
<path d="M3445 2383 c-28 -7 -39 -19 -23 -26 8 -3 25 4 39 14 24 19 21 21 -16
12z"/>
<path d="M3554 2350 c0 -20 7 -25 19 -14 7 7 -2 34 -12 34 -4 0 -7 -9 -7 -20z"/>
<path d="M3810 2349 c0 -5 -7 -9 -16 -9 -10 0 -14 -5 -10 -16 3 -8 2 -13 -2
-11 -4 2 -15 -4 -24 -15 -10 -10 -13 -18 -7 -18 5 0 7 -5 4 -11 -5 -6 -12 -4
-20 7 -8 11 -19 15 -30 10 -10 -3 -24 -1 -32 6 -12 10 -14 9 -11 -7 2 -16 -6
-21 -47 -28 -27 -4 -54 -12 -60 -16 -5 -5 -25 -12 -42 -16 -18 -3 -33 -11 -33
-16 0 -11 37 -12 43 -1 2 4 2 1 0 -7 -2 -9 3 -12 17 -8 11 3 20 1 20 -5 0 -5
-11 -8 -24 -6 -13 1 -31 -3 -40 -11 -9 -7 -17 -11 -17 -7 -1 3 -3 11 -4 16 -1
6 -3 14 -4 19 0 6 -9 9 -18 9 -10 0 -26 3 -35 6 -11 5 -20 1 -29 -15 -9 -17
-9 -24 0 -27 22 -7 11 -19 -14 -14 -18 3 -25 0 -23 -9 2 -10 -7 -12 -32 -10
-19 1 -32 0 -28 -5 4 -4 3 -13 -3 -21 -9 -10 -7 -13 7 -14 11 -1 6 -5 -11 -9
-27 -7 -25 -8 18 -9 51 -1 55 -4 31 -28 -12 -13 -13 -18 -3 -24 8 -4 10 -11 6
-15 -4 -4 -2 -14 5 -21 9 -11 9 -17 -3 -24 -21 -13 -39 -11 -45 6 -4 8 -11 15
-17 15 -8 0 -8 -3 0 -11 6 -6 9 -18 6 -25 -7 -19 27 -18 55 2 13 9 32 14 43
11 10 -3 17 -2 15 2 -8 13 11 33 29 29 15 -3 15 -5 -4 -27 -12 -14 -19 -31
-17 -38 3 -7 2 -13 -2 -13 -5 0 -18 -13 -30 -30 -16 -21 -18 -28 -7 -24 11 5
13 2 9 -10 -3 -9 -10 -13 -15 -10 -5 3 -4 -6 3 -20 6 -14 14 -26 18 -26 15 0
19 14 9 27 -8 9 -8 13 -1 13 6 0 9 7 6 15 -4 10 -2 13 8 10 10 -4 13 -15 10
-33 -5 -24 -3 -25 11 -14 9 8 13 20 11 27 -4 10 0 12 15 8 12 -3 27 0 35 6 11
9 15 9 19 -1 3 -8 6 -6 6 5 1 15 -4 17 -34 11 -28 -5 -35 -3 -35 10 0 14 -4
15 -21 6 -28 -15 -37 -5 -10 12 12 7 21 20 21 28 1 21 30 59 30 39 0 -8 -5
-20 -12 -27 -9 -9 -8 -12 5 -12 9 0 20 -7 24 -15 8 -14 11 -14 28 0 12 9 14
13 5 10 -10 -4 -16 1 -16 12 0 14 8 18 35 18 19 -1 36 -6 39 -13 5 -15 -28
-43 -40 -36 -11 7 -10 -8 1 -25 6 -9 11 -10 15 -2 4 6 4 11 -1 11 -4 0 3 6 17
13 14 7 24 21 24 30 -1 9 2 17 7 17 5 0 9 7 9 15 0 11 -8 14 -35 9 -22 -3 -35
-1 -35 6 0 6 5 8 10 5 6 -3 10 -1 10 4 0 6 -9 11 -19 11 -14 0 -18 -5 -14 -19
4 -15 0 -19 -21 -17 -14 0 -26 7 -26 14 0 6 -4 12 -10 12 -5 0 -7 7 -3 17 5
14 1 15 -27 10 -30 -6 -31 -6 -19 11 7 9 14 19 16 21 1 2 9 -4 18 -13 9 -9 23
-16 30 -16 12 0 12 5 3 25 -9 19 -9 28 0 37 8 8 12 9 12 1 0 -6 9 -9 20 -6 11
3 20 0 20 -6 0 -6 9 -11 21 -11 33 0 16 25 -19 28 -35 4 -46 32 -13 32 30 0
51 -11 51 -26 0 -21 41 -34 59 -20 12 9 13 8 8 -6 -8 -23 8 -32 33 -18 11 6
20 21 20 35 0 13 4 26 9 30 6 3 16 18 24 34 12 25 12 29 1 24 -8 -3 -14 -10
-14 -17 0 -6 -9 -19 -20 -29 -11 -9 -17 -23 -14 -30 6 -17 -25 -19 -45 -3 -11
8 -13 8 -7 -1 4 -8 1 -13 -8 -13 -16 0 -21 22 -17 68 1 13 -3 30 -9 37 -8 10
-8 15 1 20 6 4 14 3 18 -3 9 -15 90 -10 96 7 4 11 8 11 20 1 23 -19 30 -4 11
24 -20 32 -21 42 0 22 8 -9 27 -15 42 -15 17 1 21 3 10 6 -10 2 -18 8 -18 13
0 5 7 7 15 4 8 -4 17 1 21 10 4 9 19 17 38 17 27 2 28 2 6 6 -31 6 -45 26 -24
33 22 8 22 23 2 26 -10 1 -18 -2 -18 -7z m-100 -113 c0 -2 -8 -10 -17 -17 -16
-13 -17 -12 -4 4 13 16 21 21 21 13z m-280 -46 c0 -5 -5 -10 -11 -10 -5 0 -7
5 -4 10 3 6 8 10 11 10 2 0 4 -4 4 -10z m59 -56 c-6 -8 -14 -12 -18 -10 -3 1
-15 6 -26 10 -27 10 -2 25 31 18 19 -3 22 -7 13 -18z m-76 -12 c-6 -15 -4 -15
9 -4 21 16 32 1 22 -31 -9 -29 -19 -34 -54 -29 -26 4 -27 6 -15 19 8 8 15 20
15 26 0 8 -3 7 -9 -1 -7 -12 -12 -12 -29 -1 -21 13 -21 13 5 24 43 17 63 16
56 -3z m-33 -101 c0 -6 -4 -13 -10 -16 -5 -3 -10 1 -10 9 0 9 5 16 10 16 6 0
10 -4 10 -9z"/>
<path d="M3405 2080 c-3 -6 1 -7 9 -4 18 7 21 14 7 14 -6 0 -13 -4 -16 -10z"/>
<path d="M3516 2339 c4 -8 -1 -9 -17 -4 -19 5 -21 4 -9 -4 8 -6 11 -11 5 -11
-5 0 -3 -4 5 -10 9 -5 19 -5 27 2 17 14 16 25 -3 32 -9 4 -13 2 -8 -5z"/>
<path d="M3895 2340 c-3 -5 1 -10 10 -10 9 0 13 5 10 10 -3 6 -8 10 -10 10 -2
0 -7 -4 -10 -10z"/>
<path d="M3203 2310 c-13 -5 -23 -17 -23 -26 0 -11 5 -14 16 -10 9 3 18 6 20
6 3 0 2 5 -1 10 -3 6 1 10 9 10 9 0 16 5 16 10 0 12 -7 12 -37 0z"/>
<path d="M3409 2311 c12 -8 12 -12 2 -25 -11 -13 -11 -16 0 -16 8 0 20 4 27 9
11 6 10 11 -3 25 -9 9 -22 16 -28 16 -7 0 -6 -4 2 -9z"/>
<path d="M3700 2310 c0 -5 5 -10 11 -10 5 0 7 5 4 10 -3 6 -8 10 -11 10 -2 0
-4 -4 -4 -10z"/>
<path d="M3730 2299 c0 -5 5 -7 10 -4 6 3 10 8 10 11 0 2 -4 4 -10 4 -5 0 -10
-5 -10 -11z"/>
<path d="M1505 2260 c-3 -5 -1 -10 4 -10 6 0 11 5 11 10 0 6 -2 10 -4 10 -3 0
-8 -4 -11 -10z"/>
<path d="M3970 2260 c0 -5 5 -10 10 -10 6 0 10 5 10 10 0 6 -4 10 -10 10 -5 0
-10 -4 -10 -10z"/>
<path d="M3460 2250 c19 -13 30 -13 30 0 0 6 -10 10 -22 10 -19 0 -20 -2 -8
-10z"/>
<path d="M2005 2224 c-24 -37 -7 -44 45 -18 31 16 39 23 25 23 -12 1 -27 -5
-34 -11 -11 -11 -13 -10 -8 4 10 29 -10 30 -28 2z"/>
<path d="M3826 2215 c-19 -14 -19 -15 7 -15 19 0 25 4 21 15 -4 8 -7 15 -8 15
0 0 -10 -7 -20 -15z"/>
<path d="M2075 2205 c-16 -8 -26 -14 -20 -15 21 -1 -12 -19 -45 -25 -32 -6
-49 -19 -50 -37 0 -10 8 -10 28 1 10 5 27 5 41 0 23 -9 23 -10 6 -29 -17 -19
-17 -20 1 -19 53 4 77 15 79 37 1 17 -4 22 -21 22 -26 0 -39 26 -18 34 24 9
39 7 59 -7 16 -13 15 -14 -16 -10 l-34 4 39 -15 c29 -11 44 -12 62 -4 32 15
31 30 -1 22 -15 -4 -25 -2 -25 5 0 6 9 11 20 11 11 0 20 4 20 9 0 15 -32 22
-46 10 -10 -8 -17 -7 -29 5 -9 9 -17 16 -18 15 -1 0 -15 -7 -32 -14z"/>
<path d="M3345 2190 c-3 -5 1 -10 10 -10 9 0 13 5 10 10 -3 6 -8 10 -10 10 -2
0 -7 -4 -10 -10z"/>
<path d="M3228 2183 c7 -3 16 -2 19 1 4 3 -2 6 -13 5 -11 0 -14 -3 -6 -6z"/>
<path d="M3850 2181 c0 -5 9 -7 20 -4 11 3 20 7 20 9 0 2 -9 4 -20 4 -11 0
-20 -4 -20 -9z"/>
<path d="M3030 2135 c0 -8 5 -15 10 -15 6 0 10 7 10 15 0 8 -4 15 -10 15 -5 0
-10 -7 -10 -15z"/>
<path d="M3610 2140 c-11 -8 -7 -9 15 -4 24 4 27 3 15 -6 -13 -9 -12 -11 3 -8
10 2 19 8 20 13 3 14 -35 17 -53 5z"/>
<path d="M2206 2133 c-15 -4 -16 -7 -5 -14 11 -6 8 -9 -8 -9 -18 0 -23 -6 -23
-26 0 -26 -1 -27 -47 -20 l-46 6 22 -19 c21 -18 25 -18 66 -4 41 14 43 16 28
31 -11 11 -12 17 -4 20 17 6 43 -6 37 -17 -3 -5 1 -12 10 -15 21 -8 8 -26 -18
-26 -36 0 -9 -14 30 -16 20 -1 29 1 19 3 -15 4 -16 7 -6 20 11 12 10 17 -4 24
-24 14 -21 29 6 30 12 0 16 3 9 6 -6 2 -10 9 -6 14 3 5 1 9 -5 9 -5 0 -15 2
-23 4 -7 2 -22 1 -32 -1z"/>
<path d="M3043 2103 c4 -3 -1 -11 -10 -18 -14 -11 -14 -12 3 -19 10 -4 15 -4
11 0 -4 4 0 16 10 26 15 17 15 18 -2 18 -10 0 -15 -3 -12 -7z"/>
<path d="M2483 2074 c-10 -21 -9 -24 7 -24 10 0 24 8 31 18 13 15 12 16 -4 3
-15 -12 -17 -12 -12 2 10 25 -10 27 -22 1z"/>
<path d="M2964 2088 c-4 -6 -2 -14 4 -16 7 -2 12 -11 12 -20 0 -10 -3 -13 -8
-7 -7 11 -32 18 -32 10 0 -2 13 -11 29 -19 25 -13 30 -13 34 -1 3 7 1 16 -6
18 -8 3 -6 11 7 26 19 21 19 21 -7 21 -14 0 -29 -5 -33 -12z"/>
<path d="M3180 2090 c0 -5 4 -10 9 -10 6 0 13 5 16 10 3 6 -1 10 -9 10 -9 0
-16 -4 -16 -10z"/>
<path d="M2680 2080 c0 -5 5 -10 10 -10 6 0 10 5 10 10 0 6 -4 10 -10 10 -5 0
-10 -4 -10 -10z"/>
<path d="M3880 2069 c0 -5 5 -7 10 -4 6 3 10 8 10 11 0 2 -4 4 -10 4 -5 0 -10
-5 -10 -11z"/>
<path d="M2878 2063 c7 -3 16 -2 19 1 4 3 -2 6 -13 5 -11 0 -14 -3 -6 -6z"/>
<path d="M3275 2060 c-3 -5 1 -10 9 -10 8 0 18 5 21 10 3 6 -1 10 -9 10 -8 0
-18 -4 -21 -10z"/>
<path d="M3770 2054 c0 -8 5 -12 10 -9 6 3 10 10 10 16 0 5 -4 9 -10 9 -5 0
-10 -7 -10 -16z"/>
<path d="M2740 2046 c0 -14 21 -26 43 -26 22 0 40 18 32 30 -6 9 -9 9 -15 1
-5 -8 -14 -9 -33 -2 -21 8 -27 8 -27 -3z"/>
<path d="M3196 2045 c4 -8 8 -15 10 -15 2 0 4 7 4 15 0 8 -4 15 -10 15 -5 0
-7 -7 -4 -15z"/>
<path d="M3593 2025 c-1 -19 2 -35 5 -35 16 1 45 30 37 37 -4 5 -10 2 -12 -4
-8 -23 -20 -13 -15 12 2 14 0 25 -5 25 -5 0 -9 -16 -10 -35z"/>
<path d="M3070 2031 c0 -12 6 -21 13 -21 6 -1 2 -9 -11 -20 -19 -16 -27 -17
-42 -7 -15 9 -22 9 -32 -2 -11 -11 -9 -12 12 -7 21 6 22 5 8 -4 -22 -13 -23
-30 -3 -30 8 0 15 4 15 8 0 4 13 13 29 19 16 6 34 21 41 33 8 15 8 20 1 16 -6
-4 -11 -1 -11 8 0 8 -4 18 -10 21 -5 3 -10 -3 -10 -14z"/>
<path d="M3507 2044 c-13 -13 5 -25 19 -13 12 10 13 8 8 -7 -6 -15 -4 -17 6
-7 7 6 9 16 6 22 -8 12 -29 15 -39 5z"/>
<path d="M3667 2015 c-9 -19 -21 -35 -26 -35 -5 0 -11 -6 -14 -14 -4 -9 2 -13
16 -12 12 1 21 7 19 14 -1 7 5 20 13 28 8 9 13 20 10 25 -4 5 1 9 10 9 9 0 13
5 10 10 -11 18 -21 11 -38 -25z"/>
<path d="M3159 2024 c-7 -9 -22 -20 -33 -24 -18 -6 -16 -8 10 -12 24 -3 33 1
41 19 13 28 1 39 -18 17z"/>
<path d="M3272 2020 c7 -11 18 -20 23 -20 6 0 11 9 11 20 0 14 -7 20 -23 20
-21 0 -22 -2 -11 -20z"/>
<path d="M2934 2018 c-4 -6 -3 -8 4 -4 6 3 13 -3 17 -14 8 -24 21 -26 29 -4 3
8 2 13 -3 10 -5 -3 -11 1 -15 9 -6 18 -22 20 -32 3z"/>
<path d="M4592 2023 c-6 -2 -10 -8 -7 -13 6 -10 45 -1 45 11 0 10 -17 11 -38
2z"/>
<path d="M4645 2004 c-11 -8 -19 -18 -18 -22 2 -4 -10 -7 -26 -7 -20 1 -27 -3
-24 -12 3 -7 0 -13 -6 -13 -6 0 -11 5 -11 10 0 7 -7 7 -21 -1 -17 -9 -20 -8
-14 2 6 9 2 11 -13 7 -12 -4 -22 -2 -22 3 0 5 6 9 13 9 6 1 26 7 42 15 l30 13
-30 -1 c-16 0 -36 -5 -42 -10 -7 -5 -20 -7 -28 -3 -9 3 -15 0 -15 -9 0 -8 5
-15 11 -15 5 0 7 -4 4 -10 -9 -14 -21 -12 -39 6 -15 14 -16 14 -16 0 0 -9 -3
-15 -7 -15 -20 3 -24 -2 -13 -16 11 -13 10 -14 -3 -9 -8 3 -18 12 -21 20 -9
23 -24 8 -21 -21 2 -14 -1 -23 -6 -19 -5 3 -7 10 -4 15 11 17 -12 9 -30 -11
-17 -19 -17 -20 8 -31 17 -8 24 -18 22 -30 -2 -11 0 -19 5 -19 5 0 11 -9 15
-19 4 -13 12 -17 26 -14 15 4 22 0 26 -15 3 -11 11 -23 18 -26 9 -3 12 0 9 9
-4 10 1 12 18 8 13 -4 20 -2 15 3 -5 5 -12 9 -16 9 -4 0 -24 15 -45 33 -30 26
-35 35 -26 50 10 15 10 15 8 -3 -2 -14 2 -20 14 -19 10 1 16 -1 14 -5 -2 -3 2
-15 10 -26 8 -10 14 -16 14 -12 0 4 14 1 30 -8 17 -9 30 -22 30 -30 0 -8 5
-15 11 -15 5 0 8 -4 5 -9 -3 -4 5 -6 19 -4 19 4 21 8 12 18 -7 7 -17 11 -23 8
-6 -2 -14 3 -17 11 -9 23 25 20 57 -5 14 -11 24 -25 21 -30 -4 -5 -1 -9 4 -9
17 0 13 11 -11 37 -12 13 -16 23 -10 23 23 0 11 18 -25 40 -21 13 -33 25 -26
27 7 3 22 -5 35 -16 12 -12 25 -21 30 -21 4 0 8 -7 8 -15 0 -8 11 -17 24 -21
13 -3 26 -14 29 -25 3 -10 11 -19 19 -19 10 0 9 3 -2 10 -10 6 -11 10 -2 10
21 0 13 14 -20 33 -26 15 -29 20 -17 28 12 8 12 10 -1 19 -8 5 -10 10 -5 11 6
0 1 4 -10 9 -16 7 -17 9 -3 9 9 1 29 -4 43 -11 20 -9 28 -9 38 1 10 11 8 12
-9 7 -15 -5 -24 -2 -28 9 -5 13 0 15 32 9 44 -8 54 -13 48 -23 -3 -4 8 -5 25
-3 l30 4 -23 22 c-16 15 -34 21 -60 20 -27 -1 -35 2 -31 12 3 9 -2 14 -12 14
-10 0 -13 -5 -9 -12 4 -7 3 -8 -4 -4 -19 12 -14 23 21 45 l32 21 -27 0 c-16 0
-28 5 -28 10 0 6 7 10 15 10 8 0 15 5 15 10 0 14 -12 12 -35 -6z m-15 -61 c0
-10 -4 -14 -8 -8 -4 6 -11 13 -16 18 -5 4 -2 7 7 7 10 0 17 -8 17 -17z m-50
-7 c0 -3 -4 -8 -10 -11 -5 -3 -10 -1 -10 4 0 6 5 11 10 11 6 0 10 -2 10 -4z
m-176 -31 c8 -8 21 -15 28 -16 10 0 10 -2 1 -6 -7 -2 -25 5 -39 16 -15 12 -22
21 -16 21 6 0 17 -7 26 -15z m126 6 c0 -6 -4 -13 -10 -16 -5 -3 -10 1 -10 9 0
9 5 16 10 16 6 0 10 -4 10 -9z m96 -6 c9 -8 11 -15 5 -15 -5 0 -13 5 -16 11
-4 6 -13 8 -21 5 -8 -3 -14 -1 -14 4 0 15 30 12 46 -5z m-41 -35 c3 -5 -1 -10
-9 -10 -9 0 -16 5 -16 10 0 6 4 10 9 10 6 0 13 -4 16 -10z m-24 -62 c10 -16 7
-18 -19 -11 -12 3 -19 9 -16 15 3 5 -5 6 -20 2 -18 -4 -26 -2 -26 6 0 16 70 6
81 -12z"/>
<path d="M2170 2000 c-12 -8 -9 -10 13 -10 16 0 26 4 22 10 -8 12 -16 12 -35
0z"/>
<path d="M2240 2000 c0 -5 5 -10 10 -10 6 0 10 5 10 10 0 6 -4 10 -10 10 -5 0
-10 -4 -10 -10z"/>
<path d="M3198 1975 c-31 -29 -38 -31 -38 -10 0 8 -7 15 -15 15 -8 0 -15 -7
-15 -15 0 -8 5 -15 10 -15 18 0 -10 -42 -31 -47 -27 -7 -24 -22 7 -33 22 -9
24 -13 14 -25 -8 -10 -9 -15 -2 -15 15 0 35 38 27 50 -3 6 -1 10 5 10 6 0 9 4
6 9 -3 5 1 12 10 15 22 8 24 8 22 -6 -2 -6 6 -13 17 -15 19 -3 19 -3 1 5 -16
7 -17 10 -6 17 11 7 10 10 -6 16 -15 6 -15 8 -3 8 23 1 49 33 31 38 -6 3 -10
9 -6 14 9 15 0 10 -28 -16z m14 -17 c-7 -7 -12 -8 -12 -2 0 14 12 26 19 19 2
-3 -1 -11 -7 -17z"/>
<path d="M1850 1960 c0 -5 5 -10 10 -10 6 0 10 5 10 10 0 6 -4 10 -10 10 -5 0
-10 -4 -10 -10z"/>
<path d="M2947 1950 c-10 -12 -15 -25 -11 -31 3 -5 1 -16 -6 -24 -9 -11 -7
-16 9 -25 17 -9 21 -8 21 5 0 10 -5 13 -12 9 -6 -4 -4 3 5 15 8 13 13 30 10
39 -4 10 -2 13 5 8 8 -5 10 -2 6 8 -8 20 -6 20 -27 -4z"/>
<path d="M1643 1953 c4 -3 7 -10 7 -16 0 -7 26 -20 58 -29 52 -16 58 -16 72
-1 9 9 10 13 2 9 -17 -10 -98 4 -82 14 8 5 4 9 -12 12 -12 3 -30 8 -38 10 -8
3 -12 3 -7 1z"/>
<path d="M3088 1953 c7 -3 16 -2 19 1 4 3 -2 6 -13 5 -11 0 -14 -3 -6 -6z"/>
<path d="M4712 1948 c-16 -16 -15 -28 2 -28 7 0 16 9 19 20 6 23 -3 26 -21 8z"/>
<path d="M2045 1940 c3 -5 8 -10 11 -10 2 0 4 5 4 10 0 6 -5 10 -11 10 -5 0
-7 -4 -4 -10z"/>
<path d="M2893 1932 c0 -12 4 -22 8 -22 9 0 21 31 14 38 -3 3 -5 -1 -5 -9 0
-12 -2 -11 -10 1 -7 12 -9 10 -7 -8z"/>
<path d="M3255 1934 c9 -9 18 -14 21 -11 9 9 -6 27 -22 27 -13 0 -13 -2 1 -16z"/>
<path d="M3783 1926 c-38 -39 -26 -50 16 -15 15 12 21 23 15 29 -5 5 -18 0
-31 -14z"/>
<path d="M3030 1929 c0 -6 -9 -8 -22 -4 -18 5 -20 4 -8 -4 13 -9 13 -11 -2
-11 -10 0 -18 -4 -18 -10 0 -6 9 -6 26 1 15 5 34 7 44 4 9 -3 28 -1 41 5 21 9
20 9 -8 4 -26 -4 -33 -2 -33 10 0 9 -4 16 -10 16 -5 0 -10 -5 -10 -11z"/>
<path d="M3313 1930 c-13 -5 -23 -16 -23 -24 0 -8 -3 -23 -7 -33 -4 -11 7 -6
30 16 50 47 50 61 0 41z"/>
<path d="M3599 1928 c-1 -7 -2 -20 -3 -28 0 -8 -6 -14 -13 -13 -6 2 -15 -7
-19 -20 -8 -24 -35 -48 -46 -41 -5 3 -8 1 -8 -5 0 -5 5 -13 10 -16 6 -4 7 -11
4 -17 -5 -7 -12 -4 -21 7 -7 11 -13 13 -13 7 0 -7 -6 -12 -13 -12 -7 0 -13 -9
-14 -21 -2 -16 1 -18 12 -9 25 20 24 -6 -1 -33 -14 -15 -20 -27 -15 -27 5 0
13 5 16 10 3 6 11 10 17 10 6 0 3 -9 -7 -20 -18 -19 -17 -20 6 -20 19 0 21 -2
9 -10 -13 -8 -13 -10 1 -10 9 0 19 9 22 20 3 11 0 20 -6 20 -8 0 -8 3 0 11 7
7 19 8 30 4 10 -5 24 -7 32 -6 7 1 10 -2 7 -8 -4 -5 -2 -12 4 -16 10 -6 15 13
12 48 -2 25 13 21 37 -9 12 -15 21 -23 21 -18 0 4 5 3 11 -3 15 -15 69 4 69
23 0 8 5 14 10 14 6 0 10 -5 10 -11 0 -5 5 -7 10 -4 18 11 10 25 -14 25 -14 0
-28 5 -31 11 -5 6 -12 4 -21 -8 -13 -17 -13 -17 -14 1 0 12 -5 16 -15 12 -8
-3 -15 -3 -15 0 0 3 7 12 15 20 22 23 18 43 -7 42 -13 -1 -28 -5 -35 -10 -7
-5 -14 -4 -18 3 -5 7 -10 8 -14 1 -3 -6 -19 -14 -35 -18 -28 -7 -28 -7 -10 15
10 11 25 21 32 21 9 0 12 6 8 16 -3 9 4 25 20 39 26 24 25 45 -2 45 -8 0 -15
-6 -15 -12z"/>
<path d="M3990 1930 c0 -5 5 -10 10 -10 6 0 10 5 10 10 0 6 -4 10 -10 10 -5 0
-10 -4 -10 -10z"/>
<path d="M4750 1929 c0 -5 5 -7 10 -4 6 3 10 8 10 11 0 2 -4 4 -10 4 -5 0 -10
-5 -10 -11z"/>
<path d="M2098 1923 c6 -2 18 -2 25 0 6 3 1 5 -13 5 -14 0 -19 -2 -12 -5z"/>
<path d="M2285 1920 c-8 -13 5 -13 25 0 13 8 13 10 -2 10 -9 0 -20 -4 -23 -10z"/>
<path d="M2854 1922 c-5 -4 -18 -18 -27 -32 -17 -24 -17 -24 -17 -2 0 25 -15
30 -24 7 -3 -8 -1 -15 5 -15 6 0 8 -4 5 -9 -3 -4 5 -7 17 -6 12 1 38 3 57 4
33 2 34 3 12 13 -15 8 -21 17 -16 30 6 20 4 21 -12 10z"/>
<path d="M2385 1910 c3 -5 8 -10 11 -10 2 0 4 5 4 10 0 6 -5 10 -11 10 -5 0
-7 -4 -4 -10z"/>
<path d="M3645 1900 c-3 -5 -1 -10 4 -10 6 0 11 5 11 10 0 6 -2 10 -4 10 -3 0
-8 -4 -11 -10z"/>
<path d="M2190 1890 c-23 -7 -23 -8 -3 -9 12 -1 25 4 28 9 3 6 5 10 3 9 -2 -1
-14 -5 -28 -9z"/>
<path d="M2425 1890 c-3 -5 1 -10 10 -10 9 0 13 5 10 10 -3 6 -8 10 -10 10 -2
0 -7 -4 -10 -10z"/>
<path d="M2465 1890 c-3 -5 -1 -10 4 -10 6 0 11 5 11 10 0 6 -2 10 -4 10 -3 0
-8 -4 -11 -10z"/>
<path d="M2756 1885 c-3 -8 -1 -15 4 -15 6 0 10 7 10 15 0 8 -2 15 -4 15 -2 0
-6 -7 -10 -15z"/>
<path d="M3936 1884 c-4 -10 -13 -13 -26 -9 -11 3 -20 2 -20 -3 0 -8 22 -9 51
-3 11 2 19 31 10 31 -5 0 -12 -7 -15 -16z"/>
<path d="M1785 1880 c3 -5 12 -7 20 -3 21 7 19 13 -6 13 -11 0 -18 -4 -14 -10z"/>
<path d="M2098 1883 c7 -3 16 -2 19 1 4 3 -2 6 -13 5 -11 0 -14 -3 -6 -6z"/>
<path d="M2645 1880 c-3 -5 1 -10 9 -10 9 0 16 5 16 10 0 6 -4 10 -9 10 -6 0
-13 -4 -16 -10z"/>
<path d="M2680 1881 c0 -9 41 -23 48 -16 2 2 1 8 -3 14 -8 13 -45 15 -45 2z"/>
<path d="M3718 1865 c-6 -30 -2 -32 12 -6 6 11 6 22 1 25 -5 3 -11 -5 -13 -19z"/>
<path d="M2109 1860 c-13 -10 -21 -19 -17 -20 14 0 58 23 58 32 0 14 -16 9
-41 -12z"/>
<path d="M4177 1853 c20 -32 34 -44 44 -37 4 2 12 -3 19 -11 9 -11 10 -19 1
-28 -8 -10 -7 -14 4 -14 8 0 15 6 15 14 0 11 5 10 25 -3 14 -9 25 -24 24 -33
0 -12 -2 -11 -9 4 -5 11 -9 15 -9 8 -1 -6 -13 -10 -27 -8 -23 2 -25 0 -19 -23
5 -21 4 -23 -8 -14 -8 7 -17 9 -20 5 -4 -3 -9 2 -13 11 -3 9 -10 16 -14 16
-12 0 -18 -33 -9 -55 7 -18 8 -18 8 -2 1 25 21 11 22 -16 1 -17 2 -18 6 -4 2
9 11 17 18 17 9 0 12 -6 8 -16 -3 -9 0 -20 8 -25 23 -14 30 -10 19 10 -15 28
-13 81 3 81 21 0 26 -10 17 -34 -5 -14 -3 -28 4 -39 11 -14 13 -12 14 19 1 37
21 85 22 53 0 -9 6 -21 13 -27 11 -9 13 -4 11 23 -3 37 9 47 20 18 6 -15 8
-15 16 -3 7 10 10 11 10 3 0 -7 7 -13 15 -13 8 0 12 -6 10 -13 -8 -19 34 -42
49 -26 8 9 7 11 -6 6 -21 -7 -31 3 -17 19 8 9 4 16 -13 25 -13 7 -23 11 -23 9
0 -2 -12 4 -27 14 -16 10 -28 24 -28 32 0 7 -4 15 -9 18 -5 4 -7 -4 -3 -16 5
-20 3 -21 -10 -10 -8 6 -14 23 -13 37 3 20 -1 24 -18 22 -16 -1 -21 3 -19 16
2 9 -2 17 -8 17 -5 0 -9 -3 -9 -7 3 -19 -2 -23 -20 -13 -16 8 -23 6 -37 -12
-11 -16 -15 -17 -11 -5 4 11 1 17 -8 17 -8 0 -15 5 -15 10 0 6 -5 10 -10 10
-6 0 -3 -12 7 -27z"/>
<path d="M3866 1863 c-9 -9 -7 -25 3 -19 4 3 13 -6 20 -20 7 -16 16 -22 23
-18 9 6 9 9 0 12 -7 2 -12 8 -12 14 0 14 -26 38 -34 31z"/>
<path d="M1880 1850 c0 -5 9 -14 20 -20 11 -6 20 -9 20 -8 0 2 -9 11 -20 21
-11 9 -20 13 -20 7z"/>
<path d="M2202 1840 c-14 -23 -1 -27 17 -6 7 8 22 12 34 10 21 -4 21 -4 2 5
-30 14 -39 13 -53 -9z"/>
<path d="M2366 1849 c3 -5 0 -9 -5 -9 -6 0 -11 -7 -11 -15 0 -8 -5 -15 -12
-15 -9 0 -9 -3 0 -12 10 -10 16 -7 28 10 8 12 22 22 30 22 21 0 9 16 -16 23
-11 3 -18 1 -14 -4z"/>
<path d="M2518 1851 c20 -12 -10 -33 -44 -29 -16 2 -29 -2 -32 -11 -3 -10 1
-12 17 -8 11 3 19 1 15 -4 -13 -21 17 -6 46 23 23 23 34 28 39 19 6 -10 10 -9
14 3 5 13 -1 16 -31 16 -23 0 -32 -3 -24 -9z"/>
<path d="M2610 1839 c0 -5 -4 -7 -10 -4 -5 3 -10 1 -10 -6 0 -6 8 -9 20 -6 11
3 20 1 20 -4 0 -6 6 -9 13 -8 26 3 36 -2 31 -16 -4 -8 -1 -15 5 -15 16 0 14
17 -5 45 -16 25 -64 36 -64 14z"/>
<path d="M2754 1841 c4 -5 -2 -14 -11 -20 -10 -6 -13 -11 -7 -11 5 0 16 6 22
12 10 10 15 10 22 -2 5 -8 12 -11 16 -8 3 4 0 13 -8 20 -16 16 -42 22 -34 9z"/>
<path d="M2008 1833 c7 -3 16 -2 19 1 4 3 -2 6 -13 5 -11 0 -14 -3 -6 -6z"/>
<path d="M2881 1814 c-7 -16 -17 -24 -25 -21 -9 4 -13 0 -11 -11 2 -9 4 -21 4
-26 1 -4 12 -5 26 -2 28 7 30 4 15 -25 -7 -13 -7 -19 0 -19 5 0 10 4 10 9 0 5
14 14 30 20 17 5 30 12 30 15 0 3 -7 3 -16 -1 -10 -4 -22 0 -28 9 -6 9 -20 17
-29 19 -17 4 -17 6 2 26 23 24 26 33 13 33 -5 0 -14 -12 -21 -26z"/>
<path d="M4705 1823 c-2 -7 1 -13 7 -13 6 0 16 -8 23 -17 12 -16 14 -16 30 0
13 14 20 15 31 6 21 -17 28 -4 8 15 -12 12 -20 14 -29 6 -8 -7 -15 -7 -19 -1
-3 5 0 12 6 14 7 3 -2 4 -19 4 -18 -1 -35 -8 -38 -14z"/>
<path d="M4151 1813 c0 -11 3 -13 6 -5 2 6 10 9 15 6 7 -4 8 -2 4 4 -11 18
-26 14 -25 -5z"/>
<path d="M2535 1800 c-8 -13 5 -13 25 0 13 8 13 10 -2 10 -9 0 -20 -4 -23 -10z"/>
<path d="M2925 1800 c-7 -12 2 -12 30 0 19 8 19 9 -2 9 -12 1 -25 -3 -28 -9z"/>
<path d="M1850 1790 c0 -5 5 -10 10 -10 6 0 10 5 10 10 0 6 -4 10 -10 10 -5 0
-10 -4 -10 -10z"/>
<path d="M3100 1790 c-8 -5 -10 -10 -5 -10 6 0 17 5 25 10 8 5 11 10 5 10 -5
0 -17 -5 -25 -10z"/>
<path d="M3289 1783 c-13 -15 -12 -15 9 -4 23 12 28 21 13 21 -5 0 -15 -7 -22
-17z"/>
<path d="M2375 1780 c-3 -5 -1 -10 4 -10 6 0 11 5 11 10 0 6 -2 10 -4 10 -3 0
-8 -4 -11 -10z"/>
<path d="M2706 1767 c-4 -17 -8 -18 -20 -8 -12 10 -14 7 -9 -21 2 -18 9 -34
14 -36 5 -2 9 -10 9 -18 0 -19 16 -18 24 2 8 22 29 12 36 -17 3 -13 9 -19 12
-13 4 6 0 23 -8 39 -11 22 -12 31 -2 43 11 13 9 14 -11 7 -21 -6 -23 -5 -18
17 5 17 2 25 -7 25 -8 0 -17 -9 -20 -20z"/>
<path d="M3804 1765 c-4 -14 -4 -29 0 -32 3 -4 6 3 6 13 0 11 5 25 12 32 9 9
9 12 0 12 -6 0 -14 -11 -18 -25z"/>
<path d="M3870 1780 c0 -5 -6 -10 -13 -10 -8 0 -19 -11 -25 -25 -6 -14 -17
-25 -24 -25 -13 0 -29 -30 -42 -76 -8 -28 -46 -21 -46 8 0 17 2 18 15 8 9 -7
19 -9 23 -5 4 4 1 10 -5 12 -7 3 -13 12 -13 21 -1 13 -6 10 -21 -11 l-21 -27
-27 20 c-15 10 -32 15 -37 11 -15 -14 -74 -22 -74 -10 0 6 -4 7 -10 4 -14 -8
-13 -42 1 -47 9 -3 9 -10 2 -23 -6 -11 -7 -29 -3 -40 7 -19 7 -19 14 2 4 13 4
27 1 33 -3 5 1 10 9 10 9 0 21 9 28 19 6 10 18 17 25 14 7 -3 13 0 13 6 0 6 9
11 20 11 16 0 20 -6 17 -33 -2 -28 -5 -33 -22 -29 -11 2 -26 12 -34 21 -12 15
-13 14 -8 -1 4 -10 3 -18 -1 -18 -5 0 -8 -12 -8 -27 1 -18 -4 -28 -14 -29 -8
0 -23 -4 -32 -7 -39 -15 -48 -16 -48 -7 0 6 -7 10 -16 10 -9 0 -14 -6 -11 -12
15 -41 18 -60 9 -54 -5 3 -17 -3 -26 -13 -11 -13 -14 -21 -7 -26 6 -3 11 -1
11 4 0 6 6 11 14 11 22 0 70 -20 63 -26 -3 -3 -15 0 -27 6 -18 10 -24 8 -35
-7 -7 -10 -11 -20 -9 -23 3 -2 8 1 12 7 5 8 12 9 22 2 12 -7 11 -10 -8 -15
-18 -5 -20 -9 -11 -20 8 -9 8 -14 1 -14 -6 0 -14 9 -17 20 -3 11 -11 20 -16
20 -6 0 -7 6 -4 13 4 6 1 5 -7 -4 -7 -8 -22 -18 -32 -22 -19 -7 -19 -8 0 -22
10 -7 21 -9 22 -4 6 15 19 10 25 -10 3 -15 0 -17 -17 -13 -11 3 -27 12 -34 19
-16 16 -29 17 -37 3 -3 -5 -1 -10 5 -10 7 0 10 -6 7 -12 -2 -7 -14 -13 -27
-13 -28 0 -50 -49 -31 -68 15 -15 33 10 27 36 -6 25 11 21 18 -5 8 -32 7 -50
-2 -44 -5 3 -15 -4 -22 -15 -11 -15 -22 -18 -46 -13 -19 3 -35 1 -38 -5 -13
-20 -32 -11 -44 21 -9 25 -9 34 1 40 8 5 7 8 -5 8 -10 0 -18 5 -18 10 0 6 5
10 11 10 5 0 7 4 4 10 -4 6 1 7 11 3 11 -4 15 -3 10 5 -3 6 -2 13 4 17 5 3 10
14 10 25 0 13 5 17 20 13 25 -7 53 15 45 36 -4 14 -4 14 8 1 18 -22 35 -22 47
0 7 13 21 20 40 20 17 0 30 4 30 9 0 5 3 16 6 25 4 10 1 16 -9 16 -9 0 -18 -9
-22 -20 -5 -15 -10 -17 -30 -10 -18 7 -25 5 -29 -7 -8 -20 -19 -10 -22 22 -2
22 0 24 17 14 21 -11 59 -4 59 12 0 13 -18 11 -23 -3 -3 -9 -11 -7 -25 7 -29
29 -36 61 -16 69 12 4 15 2 10 -9 -3 -8 -1 -15 4 -15 6 0 10 8 10 17 0 15 2
15 14 -2 13 -18 14 -18 20 3 4 12 14 22 23 22 11 0 13 5 8 18 -4 9 -8 22 -8
29 0 7 -13 17 -29 22 -15 6 -28 15 -28 20 0 6 -4 11 -10 11 -5 0 -10 -7 -10
-15 0 -8 -5 -15 -11 -15 -5 0 -7 -4 -4 -10 3 -5 2 -10 -2 -10 -5 0 -16 -12
-24 -26 -12 -19 -27 -28 -50 -30 -25 -3 -30 -1 -19 6 13 8 12 10 -4 10 -12 0
-16 -5 -12 -16 3 -9 6 -18 6 -20 0 -2 7 -4 15 -4 8 0 15 -4 15 -9 0 -4 -11 -6
-25 -3 -29 5 -32 -3 -9 -26 15 -14 15 -16 -5 -24 -11 -4 -21 -12 -21 -18 0 -6
-4 -9 -9 -6 -5 3 -12 -1 -15 -10 -8 -20 22 -46 47 -40 22 5 22 1 -3 -24 -12
-12 -25 -18 -29 -15 -12 7 -34 -22 -38 -48 -2 -12 -11 -28 -20 -34 -9 -7 -18
-22 -20 -34 -4 -25 -31 -54 -52 -55 -9 -1 -42 -7 -73 -13 -48 -10 -75 -10
-157 3 -68 11 -126 14 -189 10 -94 -7 -162 7 -203 42 -22 19 -50 18 -43 -1 4
-8 -1 -26 -9 -39 l-16 -24 182 -6 c214 -7 330 -8 642 -2 127 2 263 1 303 -3
75 -6 100 -2 88 18 -4 6 1 27 10 48 13 27 15 38 6 41 -8 2 -9 9 -2 21 5 10 7
21 4 23 -2 3 11 33 30 67 19 33 32 61 29 61 -3 0 6 15 20 34 15 18 23 37 19
40 -3 4 0 11 8 16 13 8 12 10 -2 10 -10 0 -18 -4 -18 -10 0 -5 -5 -10 -11 -10
-23 0 -1 24 29 32 18 5 29 13 27 21 -3 7 13 20 35 30 36 17 110 102 110 127 0
5 7 13 17 18 14 9 14 11 -5 21 -15 8 -22 8 -22 1z m-150 -180 c0 -5 -4 -10
-10 -10 -5 0 -10 5 -10 10 0 6 5 10 10 10 6 0 10 -4 10 -10z m-52 -31 c-2 -6
-8 -10 -13 -10 -5 0 -11 4 -13 10 -2 6 4 11 13 11 9 0 15 -5 13 -11z m-13 -29
c3 -6 1 -11 -4 -11 -6 -1 -15 -3 -21 -4 -5 -1 -14 -3 -19 -4 -5 0 -17 -8 -26
-17 -12 -12 -19 -13 -29 -4 -12 9 -13 7 -9 -10 4 -16 2 -19 -11 -14 -28 11
-14 39 17 37 15 -1 27 2 27 7 0 5 9 12 21 15 12 4 18 12 15 21 -4 11 -2 12 14
4 10 -5 22 -15 25 -20z m25 -30 c-8 -5 -19 -10 -25 -10 -5 0 -3 5 5 10 8 5 20
10 25 10 6 0 3 -5 -5 -10z m-357 -44 c3 -6 -8 -19 -24 -28 -30 -18 -40 -9 -15
12 8 6 12 18 9 26 -3 10 0 12 10 8 9 -3 18 -11 20 -18z m117 -182 c0 -17 -27
-37 -42 -31 -9 4 -7 6 3 6 13 1 16 9 13 39 -4 35 -4 36 11 18 8 -11 15 -25 15
-32z"/>
<path d="M4130 1764 c-7 -18 -7 -31 1 -40 6 -7 7 -19 3 -25 -4 -8 -3 -9 4 -5
15 9 16 33 2 38 -6 2 -4 14 5 31 7 15 9 27 4 27 -5 0 -14 -12 -19 -26z"/>
<path d="M2010 1769 c0 -11 38 -22 50 -14 18 11 10 20 -20 21 -17 1 -30 -2
-30 -7z"/>
<path d="M2585 1759 l-20 -20 29 11 c24 9 31 8 38 -5 10 -16 28 -21 28 -6 0
14 -29 41 -43 40 -7 0 -21 -9 -32 -20z"/>
<path d="M4190 1769 c0 -5 5 -7 10 -4 6 3 10 8 10 11 0 2 -4 4 -10 4 -5 0 -10
-5 -10 -11z"/>
<path d="M4710 1771 c0 -8 34 -21 55 -21 11 1 -35 29 -47 30 -5 0 -8 -4 -8 -9z"/>
<path d="M4845 1770 c-3 -5 1 -10 10 -10 9 0 13 5 10 10 -3 6 -8 10 -10 10 -2
0 -7 -4 -10 -10z"/>
<path d="M2410 1763 c-8 -2 -22 -7 -29 -9 -11 -4 -6 -10 15 -23 22 -14 35 -16
57 -8 37 13 46 29 10 21 -27 -6 -27 -6 -8 9 20 16 20 16 -5 16 -14 0 -32 -3
-40 -6z"/>
<path d="M3372 1755 c-17 -19 -1 -19 24 0 14 11 15 14 4 14 -8 0 -21 -6 -28
-14z"/>
<path d="M4150 1760 c0 -5 5 -10 10 -10 6 0 10 5 10 10 0 6 -4 10 -10 10 -5 0
-10 -4 -10 -10z"/>
<path d="M1895 1740 c10 -11 23 -20 29 -20 6 0 24 -16 40 -35 17 -20 39 -35
51 -35 13 0 22 -6 22 -15 0 -8 -4 -15 -9 -15 -5 0 -3 -6 4 -14 9 -10 19 -11
35 -3 16 7 31 6 53 -3 24 -10 34 -10 43 -1 9 9 9 11 -3 7 -20 -7 -86 27 -82
42 1 7 -7 12 -18 12 -11 0 -20 6 -20 13 0 8 -19 20 -42 27 -24 8 -45 17 -48
20 -10 12 -55 40 -64 40 -5 0 -1 -9 9 -20z"/>
<path d="M4810 1750 c0 -5 5 -10 11 -10 5 0 7 5 4 10 -3 6 -8 10 -11 10 -2 0
-4 -4 -4 -10z"/>
<path d="M4776 1741 c-6 -10 43 -25 52 -16 3 3 -2 5 -11 5 -9 0 -17 5 -17 10
0 12 -17 13 -24 1z"/>
<path d="M2105 1730 c22 -5 44 -4 50 1 5 5 -11 9 -40 8 l-50 -1 40 -8z"/>
<path d="M2341 1731 c-10 -6 -9 -10 3 -14 8 -3 18 -2 21 3 8 13 -9 20 -24 11z"/>
<path d="M3325 1730 c-3 -6 1 -7 9 -4 18 7 21 14 7 14 -6 0 -13 -4 -16 -10z"/>
<path d="M4065 1730 c-3 -5 1 -10 9 -10 9 0 16 5 16 10 0 6 -4 10 -9 10 -6 0
-13 -4 -16 -10z"/>
<path d="M4493 1705 c21 -32 37 -44 37 -27 0 8 -48 62 -55 62 -2 0 6 -16 18
-35z"/>
<path d="M1545 1720 c3 -5 8 -10 11 -10 2 0 4 5 4 10 0 6 -5 10 -11 10 -5 0
-7 -4 -4 -10z"/>
<path d="M4550 1714 c0 -8 5 -12 10 -9 6 4 8 11 5 16 -9 14 -15 11 -15 -7z"/>
<path d="M1417 1704 c-39 -21 -28 -28 21 -15 22 6 47 8 56 5 10 -4 16 -1 16 7
0 20 -59 21 -93 3z"/>
<path d="M2165 1710 c-3 -5 -4 -10 -1 -10 2 0 12 -3 22 -7 11 -4 15 -3 11 4
-4 6 -1 14 5 16 7 3 3 6 -9 6 -12 1 -25 -3 -28 -9z"/>
<path d="M3118 1709 c-19 -11 -24 -29 -8 -29 5 0 14 9 20 20 12 23 12 23 -12
9z"/>
<path d="M2226 1701 c-19 -7 -19 -8 2 -13 12 -4 20 -2 17 2 -3 5 1 11 7 13 7
3 9 5 3 6 -5 0 -19 -4 -29 -8z"/>
<path d="M4800 1700 c0 -13 39 -32 53 -26 7 2 4 5 -5 5 -10 1 -18 5 -18 10 0
5 -7 11 -15 15 -8 3 -15 1 -15 -4z"/>
<path d="M2464 1692 c10 -16 -34 -42 -71 -42 -25 0 -31 4 -27 15 8 20 -35 20
-62 1 -18 -14 -18 -15 9 -21 20 -5 25 -11 18 -19 -8 -9 -1 -11 26 -8 23 3 33
1 29 -6 -4 -6 2 -8 15 -5 12 4 24 14 26 24 6 21 42 32 60 17 7 -6 13 -7 13 -3
0 4 6 2 14 -5 8 -6 12 -18 9 -26 -3 -8 0 -14 7 -14 7 0 10 -7 7 -15 -5 -11 2
-14 33 -11 22 2 40 0 40 -5 0 -4 15 -11 33 -14 17 -4 37 -11 42 -15 13 -10 55
6 55 21 0 6 -7 9 -15 5 -9 -3 -15 0 -15 9 0 8 -7 15 -15 15 -9 0 -20 11 -26
24 -9 18 -17 23 -33 19 -35 -8 -66 -4 -82 11 -12 13 -12 17 2 31 20 20 11 33
-11 15 -14 -12 -29 -11 -69 6 -13 5 -17 4 -12 -4z"/>
<path d="M2883 1679 c-38 -24 -42 -34 -12 -26 31 8 51 -13 33 -34 -13 -15 -13
-17 1 -23 10 -3 18 1 21 12 10 30 13 36 30 59 15 20 14 21 -5 16 -12 -3 -21
-12 -21 -20 0 -13 -3 -13 -15 -3 -12 10 -13 16 -4 26 15 19 10 17 -28 -7z"/>
<path d="M3320 1685 c-11 -13 -10 -14 4 -9 9 3 16 10 16 15 0 13 -6 11 -20 -6z"/>
<path d="M3392 1686 c7 -8 17 -12 22 -9 4 3 2 9 -5 14 -22 13 -31 11 -17 -5z"/>
<path d="M3428 1669 c-7 -18 38 -43 48 -27 7 11 -16 29 -27 22 -4 -2 -9 1 -11
8 -3 8 -6 7 -10 -3z"/>
<path d="M4321 1668 c0 -7 4 -22 9 -33 7 -17 9 -15 9 13 1 17 -3 32 -9 32 -5
0 -10 -6 -9 -12z"/>
<path d="M4375 1660 c4 -14 7 -30 7 -36 1 -10 8 -11 38 -4 3 0 -2 6 -11 13 -8
7 -21 21 -28 32 -12 19 -12 18 -6 -5z"/>
<path d="M1550 1660 c0 -5 4 -10 9 -10 6 0 13 5 16 10 3 6 -1 10 -9 10 -9 0
-16 -4 -16 -10z"/>
<path d="M2781 1634 c-15 -34 -14 -36 9 -24 21 11 27 35 11 44 -4 3 -13 -6
-20 -20z"/>
<path d="M2956 1645 c-12 -9 -16 -20 -12 -31 6 -15 9 -14 22 11 17 34 15 38
-10 20z"/>
<path d="M1505 1640 c-52 -11 -75 -22 -69 -31 3 -5 -8 -12 -25 -15 -16 -4 -32
-12 -35 -20 -3 -8 -11 -14 -18 -14 -20 0 -115 -49 -96 -50 35 0 168 58 168 73
0 5 9 7 20 4 11 -3 22 -2 25 3 3 4 23 3 45 -2 47 -12 80 -4 61 15 -8 8 -16 9
-29 1 -9 -6 -28 -8 -41 -5 -19 5 -21 8 -10 18 8 6 25 13 39 15 17 2 20 5 10 9
-8 3 -28 2 -45 -1z"/>
<path d="M3521 1634 c0 -11 3 -14 6 -6 3 7 2 16 -1 19 -3 4 -6 -2 -5 -13z"/>
<path d="M1347 1633 c-10 -9 -9 -23 1 -23 5 0 9 7 9 15 0 17 -1 18 -10 8z"/>
<path d="M2216 1605 c-3 -10 1 -15 14 -15 25 0 34 16 14 24 -21 8 -21 8 -28
-9z"/>
<path d="M2817 1600 c-4 -17 -3 -19 9 -9 17 14 19 -2 2 -21 -7 -8 -4 -7 7 3
18 15 18 18 4 33 -15 14 -17 14 -22 -6z"/>
<path d="M3470 1609 c0 -6 5 -7 10 -4 6 3 10 1 10 -5 0 -7 -8 -9 -20 -5 -11 3
-20 2 -20 -4 0 -5 -7 -17 -16 -25 -17 -18 -21 -16 68 -20 41 -1 51 8 18 17
-27 7 -26 37 2 37 29 0 20 6 -19 13 -20 4 -33 2 -33 -4z"/>
<path d="M2435 1600 c4 -7 2 -16 -4 -20 -7 -4 10 -7 38 -6 33 1 51 5 51 14 0
6 -3 12 -7 12 -5 1 -25 3 -47 6 -28 5 -36 3 -31 -6z"/>
<path d="M1630 1590 c0 -5 5 -10 10 -10 6 0 10 5 10 10 0 6 -4 10 -10 10 -5 0
-10 -4 -10 -10z"/>
<path d="M2096 1575 c-4 -11 1 -15 17 -15 12 -1 33 -7 47 -15 23 -13 21 -14
-29 -8 l-53 6 18 -21 c10 -12 28 -22 39 -22 18 1 18 2 -5 16 l-25 15 24 -7
c14 -4 32 -14 40 -24 17 -19 86 -46 76 -30 -4 6 1 10 9 10 9 0 16 5 16 10 0 6
-6 10 -14 10 -7 0 -27 7 -42 15 -38 19 -14 19 33 0 25 -11 40 -12 47 -5 7 7 5
10 -7 10 -9 0 -17 4 -17 10 0 17 -54 38 -83 33 -16 -3 -37 1 -52 11 -30 20
-31 20 -39 1z"/>
<path d="M2938 1584 c-3 -5 -2 -18 2 -28 3 -11 9 -15 12 -10 3 5 2 18 -2 28
-3 11 -9 15 -12 10z"/>
<path d="M4330 1574 c0 -8 -4 -13 -9 -9 -10 5 3 -53 14 -63 10 -10 17 7 9 20
-5 7 -7 25 -5 40 1 16 0 28 -3 28 -3 0 -6 -7 -6 -16z"/>
<path d="M2290 1570 l-25 -8 28 -1 c15 -1 27 4 27 9 0 6 -1 10 -2 9 -2 -1 -14
-5 -28 -9z"/>
<path d="M4120 1568 c0 -10 7 -18 15 -18 8 0 14 -6 13 -12 -2 -7 3 -12 10 -10
17 3 15 -45 -3 -52 -8 -3 -15 -10 -15 -16 0 -17 14 -11 28 11 19 30 6 103 -16
94 -8 -3 -19 0 -24 7 -6 10 -8 8 -8 -4z"/>
<path d="M1656 1563 c-4 -5 -13 -8 -18 -8 -6 0 -13 -6 -16 -13 -3 -11 0 -12
16 -3 10 6 21 8 24 6 3 -3 5 2 5 10 0 17 -1 18 -11 8z"/>
<path d="M1870 1550 c0 -5 5 -10 10 -10 6 0 10 5 10 10 0 6 -4 10 -10 10 -5 0
-10 -4 -10 -10z"/>
<path d="M2780 1550 c-11 -7 -12 -10 -2 -10 9 0 11 -7 7 -20 -10 -32 2 -23 14
10 10 31 6 36 -19 20z"/>
<path d="M4197 1510 c7 -73 31 -164 34 -130 4 40 -1 64 -13 71 -6 4 -8 17 -5
30 3 13 -1 38 -8 54 -13 29 -14 28 -8 -25z"/>
<path d="M4225 1550 c-3 -5 -1 -10 4 -10 6 0 11 5 11 10 0 6 -2 10 -4 10 -3 0
-8 -4 -11 -10z"/>
<path d="M2813 1533 c-8 -21 -1 -22 30 -3 l28 18 -26 0 c-15 0 -29 -7 -32 -15z"/>
<path d="M2965 1539 c-4 -6 -5 -12 -2 -15 2 -3 7 2 10 11 7 17 1 20 -8 4z"/>
<path d="M3003 1531 c1 -15 4 -17 14 -9 17 14 16 28 -1 28 -8 0 -14 -9 -13
-19z"/>
<path d="M1733 1533 c9 -2 23 -2 30 0 6 3 -1 5 -18 5 -16 0 -22 -2 -12 -5z"/>
<path d="M3440 1524 c0 -8 5 -12 10 -9 6 3 10 10 10 16 0 5 -4 9 -10 9 -5 0
-10 -7 -10 -16z"/>
<path d="M2045 1520 c3 -5 11 -10 16 -10 6 0 7 5 4 10 -3 6 -11 10 -16 10 -6
0 -7 -4 -4 -10z"/>
<path d="M3145 1519 c-4 -6 -5 -12 -2 -15 2 -3 7 2 10 11 7 17 1 20 -8 4z"/>
<path d="M3365 1520 c-4 -6 3 -10 14 -10 25 0 27 6 6 13 -8 4 -17 2 -20 -3z"/>
<path d="M2374 1506 c-10 -7 -32 -18 -49 -24 l-30 -11 37 2 c20 0 34 5 32 9
-3 4 2 8 10 8 8 0 18 5 21 11 11 17 0 20 -21 5z"/>
<path d="M2925 1510 c-3 -5 -2 -10 4 -10 5 0 13 5 16 10 3 6 2 10 -4 10 -5 0
-13 -4 -16 -10z"/>
<path d="M3180 1510 c-9 -6 -10 -10 -3 -10 6 0 15 5 18 10 8 12 4 12 -15 0z"/>
<path d="M4263 1500 c4 -14 7 -28 7 -32 0 -5 9 -8 19 -8 11 0 22 -6 24 -12 4
-10 6 -10 6 0 1 7 -6 15 -14 18 -8 4 -13 10 -10 14 2 4 -5 16 -17 26 -21 19
-21 19 -15 -6z"/>
<path d="M4465 1500 c3 -5 11 -10 16 -10 6 0 7 5 4 10 -3 6 -11 10 -16 10 -6
0 -7 -4 -4 -10z"/>
<path d="M2526 1491 c-3 -5 3 -11 13 -14 12 -3 22 1 25 9 6 16 -29 20 -38 5z"/>
<path d="M3460 1484 c0 -8 5 -12 10 -9 6 3 10 10 10 16 0 5 -4 9 -10 9 -5 0
-10 -7 -10 -16z"/>
<path d="M4231 1484 c0 -11 3 -14 6 -6 3 7 2 16 -1 19 -3 4 -6 -2 -5 -13z"/>
<path d="M3155 1479 c-11 -16 -2 -17 25 -2 24 12 24 13 3 13 -12 0 -25 -5 -28
-11z"/>
<path d="M4346 1473 c6 -5 16 -17 22 -28 6 -11 12 -15 12 -9 0 8 11 9 37 3 40
-8 49 -6 39 10 -4 6 -13 8 -21 4 -9 -3 -22 1 -31 8 -9 7 -28 15 -43 16 -14 2
-21 0 -15 -4z"/>
<path d="M4110 1460 c0 -5 5 -10 11 -10 5 0 7 5 4 10 -3 6 -8 10 -11 10 -2 0
-4 -4 -4 -10z"/>
<path d="M2130 1456 c0 -2 7 -7 16 -10 8 -3 12 -2 9 4 -6 10 -25 14 -25 6z"/>
<path d="M4175 1450 c3 -5 8 -10 11 -10 2 0 4 5 4 10 0 6 -5 10 -11 10 -5 0
-7 -4 -4 -10z"/>
<path d="M1570 1435 c-10 -13 -9 -15 9 -15 11 0 21 4 21 9 0 18 -18 21 -30 6z"/>
<path d="M1677 1436 c-6 -15 1 -26 15 -26 11 0 10 27 -1 34 -5 3 -11 0 -14 -8z"/>
<path d="M4027 1443 c-12 -12 -7 -19 12 -19 15 0 17 3 9 13 -12 15 -13 15 -21
6z"/>
<path d="M4070 1424 c0 -8 5 -12 10 -9 6 4 8 11 5 16 -9 14 -15 11 -15 -7z"/>
<path d="M4147 1427 c-11 -29 -9 -43 4 -30 6 6 9 19 7 29 -3 18 -4 18 -11 1z"/>
<path d="M4255 1430 c-3 -5 -3 -14 0 -20 3 -5 1 -10 -4 -10 -6 0 -11 -13 -11
-30 0 -37 -13 -39 -28 -5 -6 14 -16 25 -22 25 -5 0 -10 8 -10 18 0 14 -2 15
-10 2 -14 -22 -12 -27 10 -33 11 -3 20 -11 20 -17 0 -7 -6 -10 -14 -7 -21 8
-26 -38 -7 -57 9 -10 11 -16 4 -16 -7 0 -21 10 -33 22 l-20 22 17 -42 c8 -23
20 -39 25 -36 5 3 16 0 24 -7 8 -7 14 -8 13 -3 -4 21 2 33 19 37 14 3 12 6 -9
15 -31 12 -47 42 -23 42 9 0 25 -11 36 -25 11 -14 23 -23 27 -21 11 7 12 66 1
66 -6 0 -8 5 -5 10 4 6 12 7 18 3 9 -5 9 -3 0 8 -13 16 -6 62 7 54 5 -3 6 -14
3 -24 -3 -10 0 -22 5 -25 18 -11 25 15 11 40 -13 25 -33 31 -44 14z"/>
<path d="M1340 1420 l-25 -8 27 -1 c15 -1 30 4 33 9 7 11 0 11 -35 0z"/>
<path d="M2300 1410 c30 -24 41 -25 34 -5 -4 8 -10 13 -14 10 -5 -3 -11 -1
-15 5 -3 5 -12 10 -18 10 -7 0 -1 -9 13 -20z"/>
<path d="M1955 1413 c11 -3 26 -10 33 -16 15 -12 27 -3 17 12 -3 6 -21 10 -38
10 -21 -1 -25 -3 -12 -6z"/>
<path d="M2219 1399 c13 -10 31 -19 40 -19 14 0 14 -2 1 -10 -8 -5 -10 -10 -4
-10 5 0 18 6 29 13 22 17 10 27 -49 38 l-41 7 24 -19z"/>
<path d="M2040 1395 c7 -9 15 -13 17 -11 7 7 -7 26 -19 26 -6 0 -6 -6 2 -15z"/>
<path d="M2181 1394 c0 -11 3 -14 6 -6 3 7 2 16 -1 19 -3 4 -6 -2 -5 -13z"/>
<path d="M3150 1400 c-13 -8 -12 -10 3 -10 9 0 17 5 17 10 0 12 -1 12 -20 0z"/>
<path d="M3182 1401 c2 -7 7 -12 11 -12 12 1 9 15 -3 20 -7 2 -11 -2 -8 -8z"/>
<path d="M4050 1398 c0 -9 4 -28 10 -42 6 -16 6 -27 0 -31 -14 -9 -12 -22 3
-22 17 0 15 83 -2 100 -8 8 -11 7 -11 -5z"/>
<path d="M4117 1403 c-10 -9 -9 -61 1 -67 4 -2 8 13 8 35 0 42 0 42 -9 32z"/>
<path d="M1275 1375 c-16 -13 -24 -24 -16 -25 7 0 26 11 43 25 16 14 24 25 16
25 -7 0 -26 -11 -43 -25z"/>
<path d="M1630 1379 c-24 -7 -24 -7 -2 -8 12 -1 22 -5 22 -11 0 -5 5 -10 10
-10 12 0 14 27 3 33 -5 2 -19 1 -33 -4z"/>
<path d="M3885 1380 c-3 -5 -1 -10 4 -10 6 0 11 5 11 10 0 6 -2 10 -4 10 -3 0
-8 -4 -11 -10z"/>
<path d="M2327 1363 c8 -21 23 -33 41 -33 18 0 15 21 -5 36 -26 19 -44 17 -36
-3z"/>
<path d="M3915 1347 c-20 -20 -23 -27 -9 -19 23 12 49 40 43 46 -2 2 -17 -10
-34 -27z"/>
<path d="M2181 1356 c-8 -9 -7 -18 4 -32 8 -10 15 -29 15 -40 0 -12 7 -24 15
-28 8 -3 15 -12 15 -20 0 -8 6 -17 13 -19 6 -3 0 -6 -15 -6 -24 -1 -50 -19
-31 -22 33 -5 71 -4 88 2 18 7 18 8 2 8 -10 1 -15 6 -12 11 4 6 11 8 16 5 8
-6 13 9 10 29 -1 5 5 6 14 3 8 -4 15 -2 15 3 0 5 -9 11 -19 15 -11 3 -18 12
-15 19 3 7 -2 16 -12 20 -13 5 -14 9 -4 21 11 13 8 15 -15 13 -15 -2 -30 -8
-32 -15 -3 -7 -9 -13 -14 -13 -6 0 -6 7 0 18 13 24 -21 49 -38 28z"/>
<path d="M4140 1349 c0 -11 5 -17 10 -14 6 3 10 13 10 21 0 8 -4 14 -10 14 -5
0 -10 -9 -10 -21z"/>
<path d="M3960 1349 c0 -5 5 -7 10 -4 6 3 10 8 10 11 0 2 -4 4 -10 4 -5 0 -10
-5 -10 -11z"/>
<path d="M1730 1338 c0 -4 7 -8 15 -8 8 0 15 4 15 8 0 5 -7 9 -15 9 -8 0 -15
-4 -15 -9z"/>
<path d="M1545 1330 c4 -6 11 -8 16 -5 14 9 11 15 -7 15 -8 0 -12 -5 -9 -10z"/>
<path d="M1635 1331 c-3 -5 -1 -12 5 -16 5 -3 10 1 10 9 0 18 -6 21 -15 7z"/>
<path d="M1692 1326 c7 -8 16 -12 21 -9 11 7 -2 23 -19 23 -12 0 -12 -2 -2
-14z"/>
<path d="M4280 1312 c0 -10 7 -27 16 -38 15 -18 15 -18 9 4 -7 24 4 29 23 10
9 -9 12 -7 12 9 0 13 -8 23 -22 27 -34 9 -38 8 -38 -12z"/>
<path d="M1745 1310 c-3 -5 -1 -10 4 -10 6 0 11 5 11 10 0 6 -2 10 -4 10 -3 0
-8 -4 -11 -10z"/>
<path d="M2368 1313 c7 -3 16 -2 19 1 4 3 -2 6 -13 5 -11 0 -14 -3 -6 -6z"/>
<path d="M4385 1311 c-3 -5 -1 -12 5 -16 5 -3 10 1 10 9 0 18 -6 21 -15 7z"/>
<path d="M1665 1300 c3 -5 8 -10 11 -10 2 0 4 5 4 10 0 6 -5 10 -11 10 -5 0
-7 -4 -4 -10z"/>
<path d="M4102 1290 c0 -14 2 -19 5 -12 2 6 2 18 0 25 -3 6 -5 1 -5 -13z"/>
<path d="M4410 1300 c0 -5 5 -10 11 -10 5 0 7 5 4 10 -3 6 -8 10 -11 10 -2 0
-4 -4 -4 -10z"/>
<path d="M1740 1283 c0 -15 19 -37 26 -31 3 4 -1 14 -10 23 -9 9 -16 13 -16 8z"/>
<path d="M1795 1280 c-4 -6 3 -10 14 -10 25 0 27 6 6 13 -8 4 -17 2 -20 -3z"/>
<path d="M4017 1266 c-4 -10 -5 -21 -2 -24 9 -9 17 6 13 25 -3 17 -4 17 -11
-1z"/>
<path d="M4047 1264 c-13 -14 -7 -32 13 -37 11 -3 23 0 27 5 3 7 1 8 -6 4 -6
-4 -14 1 -19 14 -4 11 -11 18 -15 14z"/>
<path d="M1780 1241 c0 -25 6 -27 13 -6 4 8 2 17 -3 20 -6 4 -10 -3 -10 -14z"/>
<path d="M1315 1240 c-4 -7 3 -8 22 -4 38 9 42 14 10 14 -14 0 -29 -5 -32 -10z"/>
<path d="M1625 1240 c-8 -13 19 -23 49 -18 17 4 23 1 19 -9 -3 -7 -1 -13 5
-13 5 0 8 10 7 23 -3 30 -2 29 -24 17 -13 -7 -22 -7 -26 0 -8 13 -22 13 -30 0z"/>
<path d="M1731 1234 c0 -11 3 -14 6 -6 3 7 2 16 -1 19 -3 4 -6 -2 -5 -13z"/>
<path d="M3305 1240 c3 -5 8 -10 11 -10 2 0 4 5 4 10 0 6 -5 10 -11 10 -5 0
-7 -4 -4 -10z"/>
<path d="M4350 1238 c0 -8 7 -21 15 -28 19 -16 19 -1 0 24 -12 16 -15 17 -15
4z"/>
<path d="M4100 1229 c0 -5 5 -7 10 -4 6 3 10 8 10 11 0 2 -4 4 -10 4 -5 0 -10
-5 -10 -11z"/>
<path d="M4150 1220 c14 -10 27 -16 30 -13 6 6 -30 33 -44 33 -6 0 0 -9 14
-20z"/>
<path d="M3970 1220 c0 -5 5 -10 10 -10 6 0 10 5 10 10 0 6 -4 10 -10 10 -5 0
-10 -4 -10 -10z"/>
<path d="M1760 1209 c0 -5 -4 -8 -8 -5 -4 2 -14 0 -22 -5 -11 -7 -9 -8 9 -6
21 3 45 27 27 27 -3 0 -6 -5 -6 -11z"/>
<path d="M4000 1204 c0 -13 -7 -15 -32 -12 -40 6 -73 -18 -55 -41 10 -12 9
-12 -10 -1 -12 8 -19 20 -16 29 4 15 3 15 -9 0 -7 -8 -25 -23 -40 -33 -16 -10
-25 -23 -21 -32 3 -8 -5 -23 -18 -34 -15 -12 -19 -19 -10 -20 8 0 11 -6 7 -16
-4 -12 -2 -15 9 -11 25 10 25 -9 0 -33 -28 -26 -35 -73 -10 -64 9 4 19 -3 26
-20 7 -15 17 -25 23 -23 6 2 21 1 33 -4 15 -5 25 -3 34 7 10 12 9 16 -9 21
-12 3 -22 12 -22 19 0 21 -17 17 -36 -8 -10 -14 -14 -16 -11 -6 3 9 0 19 -9
22 -16 6 -20 55 -4 57 38 4 50 1 67 -19 24 -29 69 -38 90 -17 13 14 18 14 25
3 8 -10 9 -10 5 2 -2 8 -14 15 -26 14 -11 0 -21 5 -21 13 0 7 -4 13 -9 13 -5
0 -17 8 -27 18 -10 9 -26 17 -36 17 -10 0 -28 15 -39 33 -12 17 -18 32 -15 32
15 0 55 -24 51 -31 -3 -4 3 -5 12 -3 11 3 31 -8 50 -26 36 -33 56 -39 46 -12
-4 9 12 -5 35 -31 23 -27 42 -45 42 -40 0 4 7 -3 16 -15 17 -25 24 -72 13 -87
-4 -6 -4 -17 1 -25 8 -12 10 -11 10 5 0 27 18 53 28 40 4 -5 16 -17 27 -25 19
-14 19 -14 5 5 -8 11 -25 30 -37 42 -13 12 -23 33 -23 46 0 31 -28 57 -39 38
-6 -10 -10 -9 -14 4 -4 9 -3 13 3 10 6 -3 10 -1 10 4 0 6 16 2 35 -9 19 -11
41 -17 49 -14 8 3 25 0 38 -7 22 -12 35 -17 68 -23 8 -1 22 -5 30 -9 8 -3 35
-8 60 -11 l45 -5 -35 30 c-19 16 -46 32 -60 36 -14 3 -49 17 -78 30 -29 13
-69 23 -88 23 -19 0 -43 7 -51 16 -13 13 -17 13 -24 2 -7 -10 -9 -10 -9 -1 0
21 -43 65 -51 52 -4 -6 -12 -8 -18 -5 -21 13 -11 23 24 24 22 1 33 -2 29 -9
-7 -11 32 -49 52 -49 7 0 15 -6 17 -12 4 -10 6 -10 6 0 1 6 7 12 15 12 8 0 16
7 20 15 3 10 -1 15 -12 15 -10 0 -24 6 -31 13 -11 10 -13 9 -8 -5 4 -12 2 -15
-9 -11 -10 4 -14 14 -12 27 6 29 -20 55 -33 35 -6 -10 -10 -5 -15 19 -7 33
-24 45 -24 16z m-54 -52 c-17 -16 -18 -16 -5 5 7 12 15 20 18 17 3 -2 -3 -12
-13 -22z m68 19 c4 -5 -3 -7 -14 -4 -23 6 -26 13 -6 13 8 0 17 -4 20 -9z m16
-101 c0 -5 -5 -10 -11 -10 -5 0 -7 5 -4 10 3 6 8 10 11 10 2 0 4 -4 4 -10z
m-205 -10 c3 -5 2 -10 -4 -10 -5 0 -13 5 -16 10 -3 6 -2 10 4 10 5 0 13 -4 16
-10z"/>
<path d="M4041 1204 c0 -11 3 -14 6 -6 3 7 2 16 -1 19 -3 4 -6 -2 -5 -13z"/>
<path d="M1810 1195 c0 -8 2 -15 4 -15 2 0 6 7 10 15 3 8 1 15 -4 15 -6 0 -10
-7 -10 -15z"/>
<path d="M4080 1200 c0 -5 5 -10 11 -10 5 0 7 5 4 10 -3 6 -8 10 -11 10 -2 0
-4 -4 -4 -10z"/>
<path d="M1876 1188 c16 -28 38 -48 53 -47 11 0 9 4 -7 11 -13 6 -21 17 -18
24 3 7 -2 15 -10 18 -23 9 -26 7 -18 -6z"/>
<path d="M4180 1181 c0 -5 5 -13 10 -16 6 -3 10 -2 10 4 0 5 -4 13 -10 16 -5
3 -10 2 -10 -4z"/>
<path d="M4103 1165 c-10 -10 -9 -14 2 -18 7 -3 16 1 19 8 7 20 -6 26 -21 10z"/>
<path d="M4145 1160 c3 -5 8 -10 11 -10 2 0 4 5 4 10 0 6 -5 10 -11 10 -5 0
-7 -4 -4 -10z"/>
<path d="M4350 1161 c0 -6 5 -13 10 -16 6 -3 10 1 10 9 0 9 -4 16 -10 16 -5 0
-10 -4 -10 -9z"/>
<path d="M1640 1130 c-10 -6 -11 -10 -2 -10 6 0 12 -7 12 -16 0 -8 4 -13 9 -9
10 6 11 45 1 45 -3 0 -12 -5 -20 -10z"/>
<path d="M1714 1132 c4 -7 1 -12 -8 -12 -8 0 -17 -4 -20 -9 -3 -4 6 -6 19 -3
27 5 32 16 13 28 -7 4 -8 3 -4 -4z"/>
<path d="M1749 1117 c-14 -12 -34 -27 -44 -32 -16 -10 -15 -11 5 -12 30 -3 38
-12 20 -24 -12 -9 -12 -10 3 -5 11 4 17 0 17 -11 0 -14 3 -14 12 -5 10 10 10
15 -2 22 -8 5 -10 10 -5 10 6 0 4 4 -3 9 -11 7 -11 11 2 24 9 8 16 20 16 26 0
19 17 12 23 -9 4 -17 37 -30 37 -14 0 7 -42 43 -50 43 -3 0 -17 -10 -31 -22z"/>
<path d="M1830 1123 c0 -4 5 -15 10 -23 8 -13 10 -13 10 2 0 9 -4 20 -10 23
-5 3 -10 3 -10 -2z"/>
<path d="M3746 1121 c-3 -5 3 -11 13 -14 12 -3 22 1 25 9 6 16 -29 20 -38 5z"/>
<path d="M1570 1090 c0 -13 11 -13 30 0 12 8 11 10 -7 10 -13 0 -23 -4 -23
-10z"/>
<path d="M1783 1077 c4 -10 2 -27 -3 -38 -8 -15 -7 -19 4 -19 15 0 17 53 1 67
-4 4 -5 0 -2 -10z"/>
<path d="M4295 1070 c3 -5 11 -10 16 -10 6 0 7 5 4 10 -3 6 -11 10 -16 10 -6
0 -7 -4 -4 -10z"/>
<path d="M1810 1060 c0 -5 4 -10 9 -10 6 0 13 5 16 10 3 6 -1 10 -9 10 -9 0
-16 -4 -16 -10z"/>
<path d="M1360 1049 c0 -14 -83 -31 -122 -26 -50 7 -56 -6 -12 -26 47 -23 87
-21 174 8 55 18 90 23 130 20 l55 -4 -55 10 c-104 19 -170 26 -170 18z"/>
<path d="M1645 1045 c-40 -18 -65 -40 -65 -54 0 -15 3 -15 62 14 28 14 54 22
57 18 8 -11 42 -13 35 -2 -3 5 -11 9 -19 9 -7 0 -15 7 -19 15 -7 18 -12 18
-51 0z"/>
<path d="M4262 1044 c10 -10 20 -15 24 -12 3 4 -5 12 -18 18 -22 12 -22 12 -6
-6z"/>
<path d="M1890 1031 c0 -6 4 -13 10 -16 6 -3 7 1 4 9 -7 18 -14 21 -14 7z"/>
<path d="M4360 1030 c0 -5 5 -10 11 -10 5 0 7 5 4 10 -3 6 -8 10 -11 10 -2 0
-4 -4 -4 -10z"/>
<path d="M3739 974 c-21 -24 -22 -26 -3 -16 25 13 50 42 37 42 -5 0 -20 -12
-34 -26z"/>
<path d="M1759 981 c8 -5 11 -16 6 -30 -4 -12 -2 -21 4 -21 6 0 11 -8 12 -17
0 -11 3 -13 6 -5 2 6 9 10 13 7 5 -3 11 -1 15 5 3 5 -1 10 -9 10 -9 0 -16 8
-16 18 0 20 -18 42 -34 42 -6 0 -5 -4 3 -9z"/>
<path d="M1706 953 c-12 -12 -6 -25 8 -20 8 3 17 1 20 -6 2 -7 5 -5 5 4 1 17
-22 32 -33 22z"/>
<path d="M4138 953 c-10 -3 -18 -8 -18 -11 0 -11 52 -32 62 -26 5 3 18 -2 28
-11 19 -17 19 -17 7 8 -6 14 -15 23 -20 20 -5 -3 -16 1 -25 9 -9 8 -25 13 -34
11z"/>
<path d="M1425 936 c-87 -26 -129 -62 -99 -87 12 -10 25 -7 71 17 36 18 73 29
100 29 24 0 43 3 43 8 0 4 0 16 0 27 0 17 -6 20 -37 19 -21 -1 -56 -7 -78 -13z"/>
<path d="M1677 943 c-11 -10 -8 -20 7 -26 10 -4 12 0 9 14 -6 21 -7 22 -16 12z"/>
<path d="M3997 936 c-4 -10 -11 -14 -17 -11 -5 3 -10 1 -10 -4 0 -6 7 -11 15
-11 19 0 19 -7 0 -26 -11 -11 -12 -20 -5 -34 5 -10 7 -27 3 -37 -6 -16 -5 -17
11 -3 16 12 20 12 30 -1 6 -8 20 -18 31 -22 11 -4 0 11 -25 33 -29 25 -41 42
-34 47 24 17 34 50 20 68 -12 17 -13 17 -19 1z"/>
<path d="M4042 941 c-6 -3 -8 -11 -4 -16 9 -13 52 -19 52 -8 0 13 -36 32 -48
24z"/>
<path d="M4058 868 c17 -17 15 -31 -3 -24 -8 3 -15 1 -15 -4 0 -11 33 -14 43
-4 8 8 -15 44 -27 44 -6 0 -5 -5 2 -12z"/>
<path d="M4335 850 c3 -5 8 -10 11 -10 2 0 4 5 4 10 0 6 -5 10 -11 10 -5 0 -7
-4 -4 -10z"/>
<path d="M1416 795 c-3 -8 -1 -15 3 -15 5 0 11 7 15 15 3 8 1 15 -3 15 -5 0
-11 -7 -15 -15z"/>
<path d="M3600 640 c-6 -11 -8 -20 -6 -20 3 0 10 9 16 20 6 11 8 20 6 20 -3 0
-10 -9 -16 -20z"/>
<path d="M1355 601 c-11 -23 -12 -30 -2 -34 15 -5 36 22 37 46 0 26 -18 20
-35 -12z"/>
<path d="M4330 620 c0 -5 5 -10 11 -10 5 0 7 5 4 10 -3 6 -8 10 -11 10 -2 0
-4 -4 -4 -10z"/>
<path d="M4290 591 c0 -5 5 -13 10 -16 6 -3 10 -2 10 4 0 5 -4 13 -10 16 -5 3
-10 2 -10 -4z"/>
<path d="M1382 558 c-19 -25 -23 -58 -11 -93 7 -19 17 -35 22 -35 6 0 16 -8
23 -17 13 -17 13 -17 14 0 0 9 -5 17 -11 17 -6 0 -9 9 -6 20 3 11 1 22 -4 25
-4 3 -6 12 -2 20 3 8 0 15 -6 15 -6 0 -8 11 -4 30 6 32 2 38 -15 18z"/>
<path d="M3861 534 c0 -11 3 -14 6 -6 3 7 2 16 -1 19 -3 4 -6 -2 -5 -13z"/>
<path d="M4245 533 c4 -10 10 -26 13 -36 4 -14 7 -16 13 -6 6 10 14 8 36 -11
33 -30 12 1 -30 42 -32 32 -42 35 -32 11z"/>
<path d="M3769 513 c-13 -16 -12 -17 4 -4 9 7 17 15 17 17 0 8 -8 3 -21 -13z"/>
<path d="M1740 511 c0 -5 5 -13 10 -16 6 -3 10 -2 10 4 0 5 -4 13 -10 16 -5 3
-10 2 -10 -4z"/>
<path d="M3890 468 c0 -34 13 -49 30 -38 11 7 12 10 2 10 -7 0 -11 4 -8 9 8
12 -3 41 -15 41 -5 0 -9 -10 -9 -22z"/>
<path d="M3950 473 c0 -6 -3 -20 -6 -30 -7 -17 -6 -17 12 -1 14 14 16 21 6 30
-8 8 -12 9 -12 1z"/>
<path d="M4252 451 c1 -14 8 -26 15 -28 15 -5 11 23 -6 40 -10 10 -12 7 -9
-12z"/>
<path d="M1812 415 c0 -16 2 -22 5 -12 2 9 2 23 0 30 -3 6 -5 -1 -5 -18z"/>
<path d="M3820 435 c0 -5 5 -17 10 -25 5 -8 10 -10 10 -5 0 6 -5 17 -10 25 -5
8 -10 11 -10 5z"/>
<path d="M3990 434 c0 -5 7 -19 15 -30 8 -10 15 -14 15 -8 0 5 -7 19 -15 30
-8 10 -15 14 -15 8z"/>
<path d="M3923 413 c-15 -6 -18 -93 -3 -93 6 0 10 12 11 28 0 15 2 37 3 50 2
12 2 22 2 21 -1 0 -7 -3 -13 -6z"/>
</g>
</svg>
