<?xml version="1.0" standalone="no"?>
<!DOCTYPE svg PUBLIC "-//W3C//DTD SVG 20010904//EN"
 "http://www.w3.org/TR/2001/REC-SVG-20010904/DTD/svg10.dtd">
<svg version="1.0" xmlns="http://www.w3.org/2000/svg"
 width="249.000000pt" height="54.000000pt" viewBox="0 0 249.000000 54.000000"
 preserveAspectRatio="xMidYMid meet">

<g transform="translate(0.000000,54.000000) scale(0.100000,-0.100000)"
fill="#000000" stroke="none">
<path d="M170 290 l0 -210 205 0 205 0 0 210 0 210 -205 0 -205 0 0 -210z
m345 176 c62 -26 74 -89 25 -138 -26 -26 -29 -32 -16 -42 25 -19 36 -61 25
-99 -20 -74 -77 -97 -239 -97 -111 0 -121 1 -116 18 7 20 86 360 86 367 0 12
203 4 235 -9z"/>
<path d="M364 383 c-3 -16 -7 -34 -10 -40 -5 -19 57 -16 84 3 44 30 24 64 -39
64 -23 0 -30 -5 -35 -27z"/>
<path d="M336 249 c-3 -8 -9 -31 -15 -51 l-9 -38 32 0 c54 0 95 19 102 47 9
33 -5 44 -60 50 -33 4 -47 2 -50 -8z"/>
</g>
</svg>
